<?xml version="1.0" encoding="utf-8" standalone="no"?>
<!DOCTYPE svg PUBLIC "-//W3C//DTD SVG 1.1//EN"
  "http://www.w3.org/Graphics/SVG/1.1/DTD/svg11.dtd">
<!-- Created with matplotlib (https://matplotlib.org/) -->
<svg height="317.358125pt" version="1.1" viewBox="0 0 658.742188 317.358125" width="658.742188pt" xmlns="http://www.w3.org/2000/svg" xmlns:xlink="http://www.w3.org/1999/xlink">
 <metadata>
  <rdf:RDF xmlns:cc="http://creativecommons.org/ns#" xmlns:dc="http://purl.org/dc/elements/1.1/" xmlns:rdf="http://www.w3.org/1999/02/22-rdf-syntax-ns#">
   <cc:Work>
    <dc:type rdf:resource="http://purl.org/dc/dcmitype/StillImage"/>
    <dc:date>2023-04-18T17:02:28.529143</dc:date>
    <dc:format>image/svg+xml</dc:format>
    <dc:creator>
     <cc:Agent>
      <dc:title>Matplotlib v3.3.2, https://matplotlib.org/</dc:title>
     </cc:Agent>
    </dc:creator>
   </cc:Work>
  </rdf:RDF>
 </metadata>
 <defs>
  <style type="text/css">*{stroke-linecap:butt;stroke-linejoin:round;}</style>
 </defs>
 <g id="figure_1">
  <g id="patch_1">
   <path d="M 0 317.358125 
L 658.742188 317.358125 
L 658.742188 0 
L 0 0 
z
" style="fill:#ffffff;"/>
  </g>
  <g id="axes_1">
   <g id="patch_2">
    <path d="M 41.342188 280.8 
L 320.342188 280.8 
L 320.342188 3.6 
L 41.342188 3.6 
z
" style="fill:#ffffff;"/>
   </g>
   <g id="matplotlib.axis_1">
    <g id="xtick_1">
     <g id="line2d_1">
      <path clip-path="url(#pe8d5f0f371)" d="M 54.024006 280.8 
L 54.024006 3.6 
" style="fill:none;stroke:#000000;stroke-dasharray:1.85,0.8;stroke-dashoffset:0;stroke-opacity:0.5;stroke-width:0.5;"/>
     </g>
     <g id="line2d_2">
      <defs>
       <path d="M 0 0 
L 0 -3 
" id="m3b7f38bbf0" style="stroke:#000000;stroke-width:0.5;"/>
      </defs>
      <g>
       <use style="stroke:#000000;stroke-width:0.5;" x="54.024006" xlink:href="#m3b7f38bbf0" y="280.8"/>
      </g>
     </g>
     <g id="line2d_3">
      <defs>
       <path d="M 0 0 
L 0 3 
" id="m064e21138e" style="stroke:#000000;stroke-width:0.5;"/>
      </defs>
      <g>
       <use style="stroke:#000000;stroke-width:0.5;" x="54.024006" xlink:href="#m064e21138e" y="3.6"/>
      </g>
     </g>
     <g id="text_1">
      <!-- 2 -->
      <g transform="translate(50.524006 294.02125)scale(0.14 -0.14)">
       <defs>
        <path d="M 45.84375 12.75 
L 41.21875 0 
L 2.15625 0 
L 2.15625 1.8125 
Q 19.390625 17.53125 26.421875 27.484375 
Q 33.453125 37.453125 33.453125 45.703125 
Q 33.453125 52 29.59375 56.046875 
Q 25.734375 60.109375 20.359375 60.109375 
Q 15.484375 60.109375 11.59375 57.25 
Q 7.71875 54.390625 5.859375 48.875 
L 4.046875 48.875 
Q 5.28125 57.90625 10.328125 62.734375 
Q 15.375 67.578125 22.953125 67.578125 
Q 31 67.578125 36.390625 62.40625 
Q 41.796875 57.234375 41.796875 50.203125 
Q 41.796875 45.171875 39.453125 40.140625 
Q 35.84375 32.234375 27.734375 23.390625 
Q 15.578125 10.109375 12.546875 7.375 
L 29.828125 7.375 
Q 35.109375 7.375 37.234375 7.765625 
Q 39.359375 8.15625 41.0625 9.34375 
Q 42.78125 10.546875 44.046875 12.75 
z
" id="TimesNewRomanPSMT-50"/>
       </defs>
       <use xlink:href="#TimesNewRomanPSMT-50"/>
      </g>
     </g>
    </g>
    <g id="xtick_2">
     <g id="line2d_4">
      <path clip-path="url(#pe8d5f0f371)" d="M 138.56946 280.8 
L 138.56946 3.6 
" style="fill:none;stroke:#000000;stroke-dasharray:1.85,0.8;stroke-dashoffset:0;stroke-opacity:0.5;stroke-width:0.5;"/>
     </g>
     <g id="line2d_5">
      <g>
       <use style="stroke:#000000;stroke-width:0.5;" x="138.56946" xlink:href="#m3b7f38bbf0" y="280.8"/>
      </g>
     </g>
     <g id="line2d_6">
      <g>
       <use style="stroke:#000000;stroke-width:0.5;" x="138.56946" xlink:href="#m064e21138e" y="3.6"/>
      </g>
     </g>
     <g id="text_2">
      <!-- 4 -->
      <g transform="translate(135.06946 294.02125)scale(0.14 -0.14)">
       <defs>
        <path d="M 46.53125 24.421875 
L 46.53125 17.484375 
L 37.640625 17.484375 
L 37.640625 0 
L 29.59375 0 
L 29.59375 17.484375 
L 1.5625 17.484375 
L 1.5625 23.734375 
L 32.28125 67.578125 
L 37.640625 67.578125 
L 37.640625 24.421875 
z
M 29.59375 24.421875 
L 29.59375 57.28125 
L 6.34375 24.421875 
z
" id="TimesNewRomanPSMT-52"/>
       </defs>
       <use xlink:href="#TimesNewRomanPSMT-52"/>
      </g>
     </g>
    </g>
    <g id="xtick_3">
     <g id="line2d_7">
      <path clip-path="url(#pe8d5f0f371)" d="M 223.114915 280.8 
L 223.114915 3.6 
" style="fill:none;stroke:#000000;stroke-dasharray:1.85,0.8;stroke-dashoffset:0;stroke-opacity:0.5;stroke-width:0.5;"/>
     </g>
     <g id="line2d_8">
      <g>
       <use style="stroke:#000000;stroke-width:0.5;" x="223.114915" xlink:href="#m3b7f38bbf0" y="280.8"/>
      </g>
     </g>
     <g id="line2d_9">
      <g>
       <use style="stroke:#000000;stroke-width:0.5;" x="223.114915" xlink:href="#m064e21138e" y="3.6"/>
      </g>
     </g>
     <g id="text_3">
      <!-- 6 -->
      <g transform="translate(219.614915 294.02125)scale(0.14 -0.14)">
       <defs>
        <path d="M 44.828125 67.578125 
L 44.828125 65.765625 
Q 38.375 65.140625 34.296875 63.203125 
Q 30.21875 61.28125 26.234375 57.328125 
Q 22.265625 53.375 19.65625 48.515625 
Q 17.046875 43.65625 15.28125 36.96875 
Q 22.3125 41.796875 29.390625 41.796875 
Q 36.1875 41.796875 41.15625 36.328125 
Q 46.140625 30.859375 46.140625 22.265625 
Q 46.140625 13.96875 41.109375 7.125 
Q 35.0625 -1.171875 25.09375 -1.171875 
Q 18.3125 -1.171875 13.578125 3.328125 
Q 4.296875 12.0625 4.296875 25.984375 
Q 4.296875 34.859375 7.859375 42.859375 
Q 11.421875 50.875 18.03125 57.078125 
Q 24.65625 63.28125 30.703125 65.421875 
Q 36.765625 67.578125 42 67.578125 
z
M 14.453125 33.40625 
Q 13.578125 26.8125 13.578125 22.75 
Q 13.578125 18.0625 15.3125 12.5625 
Q 17.046875 7.078125 20.453125 3.859375 
Q 22.953125 1.5625 26.515625 1.5625 
Q 30.765625 1.5625 34.109375 5.5625 
Q 37.453125 9.578125 37.453125 17 
Q 37.453125 25.34375 34.125 31.4375 
Q 30.8125 37.546875 24.703125 37.546875 
Q 22.859375 37.546875 20.734375 36.765625 
Q 18.609375 35.984375 14.453125 33.40625 
z
" id="TimesNewRomanPSMT-54"/>
       </defs>
       <use xlink:href="#TimesNewRomanPSMT-54"/>
      </g>
     </g>
    </g>
    <g id="xtick_4">
     <g id="line2d_10">
      <path clip-path="url(#pe8d5f0f371)" d="M 307.660369 280.8 
L 307.660369 3.6 
" style="fill:none;stroke:#000000;stroke-dasharray:1.85,0.8;stroke-dashoffset:0;stroke-opacity:0.5;stroke-width:0.5;"/>
     </g>
     <g id="line2d_11">
      <g>
       <use style="stroke:#000000;stroke-width:0.5;" x="307.660369" xlink:href="#m3b7f38bbf0" y="280.8"/>
      </g>
     </g>
     <g id="line2d_12">
      <g>
       <use style="stroke:#000000;stroke-width:0.5;" x="307.660369" xlink:href="#m064e21138e" y="3.6"/>
      </g>
     </g>
     <g id="text_4">
      <!-- 8 -->
      <g transform="translate(304.160369 294.02125)scale(0.14 -0.14)">
       <defs>
        <path d="M 19.1875 33.34375 
Q 11.328125 39.796875 9.046875 43.703125 
Q 6.78125 47.609375 6.78125 51.8125 
Q 6.78125 58.25 11.765625 62.90625 
Q 16.75 67.578125 25 67.578125 
Q 33.015625 67.578125 37.890625 63.234375 
Q 42.78125 58.890625 42.78125 53.328125 
Q 42.78125 49.609375 40.140625 45.75 
Q 37.5 41.890625 29.15625 36.671875 
Q 37.75 30.03125 40.53125 26.21875 
Q 44.234375 21.234375 44.234375 15.71875 
Q 44.234375 8.734375 38.90625 3.78125 
Q 33.59375 -1.171875 24.953125 -1.171875 
Q 15.53125 -1.171875 10.25 4.734375 
Q 6.0625 9.46875 6.0625 15.09375 
Q 6.0625 19.484375 9.015625 23.796875 
Q 11.96875 28.125 19.1875 33.34375 
z
M 26.859375 38.578125 
Q 32.71875 43.84375 34.28125 46.890625 
Q 35.84375 49.953125 35.84375 53.8125 
Q 35.84375 58.9375 32.953125 61.84375 
Q 30.078125 64.75 25.09375 64.75 
Q 20.125 64.75 17 61.859375 
Q 13.875 58.984375 13.875 55.125 
Q 13.875 52.59375 15.15625 50.046875 
Q 16.453125 47.515625 18.84375 45.21875 
z
M 21.484375 31.5 
Q 17.4375 28.078125 15.484375 24.046875 
Q 13.53125 20.015625 13.53125 15.328125 
Q 13.53125 9.03125 16.96875 5.25 
Q 20.40625 1.46875 25.734375 1.46875 
Q 31 1.46875 34.171875 4.4375 
Q 37.359375 7.421875 37.359375 11.671875 
Q 37.359375 15.1875 35.5 17.96875 
Q 32.03125 23.140625 21.484375 31.5 
z
" id="TimesNewRomanPSMT-56"/>
       </defs>
       <use xlink:href="#TimesNewRomanPSMT-56"/>
      </g>
     </g>
    </g>
    <g id="xtick_5">
     <g id="line2d_13">
      <defs>
       <path d="M 0 0 
L 0 -1.5 
" id="mb7f5d0949e" style="stroke:#000000;stroke-width:0.5;"/>
      </defs>
      <g>
       <use style="stroke:#000000;stroke-width:0.5;" x="75.160369" xlink:href="#mb7f5d0949e" y="280.8"/>
      </g>
     </g>
     <g id="line2d_14">
      <defs>
       <path d="M 0 0 
L 0 1.5 
" id="m5cb45ce83a" style="stroke:#000000;stroke-width:0.5;"/>
      </defs>
      <g>
       <use style="stroke:#000000;stroke-width:0.5;" x="75.160369" xlink:href="#m5cb45ce83a" y="3.6"/>
      </g>
     </g>
    </g>
    <g id="xtick_6">
     <g id="line2d_15">
      <g>
       <use style="stroke:#000000;stroke-width:0.5;" x="96.296733" xlink:href="#mb7f5d0949e" y="280.8"/>
      </g>
     </g>
     <g id="line2d_16">
      <g>
       <use style="stroke:#000000;stroke-width:0.5;" x="96.296733" xlink:href="#m5cb45ce83a" y="3.6"/>
      </g>
     </g>
    </g>
    <g id="xtick_7">
     <g id="line2d_17">
      <g>
       <use style="stroke:#000000;stroke-width:0.5;" x="117.433097" xlink:href="#mb7f5d0949e" y="280.8"/>
      </g>
     </g>
     <g id="line2d_18">
      <g>
       <use style="stroke:#000000;stroke-width:0.5;" x="117.433097" xlink:href="#m5cb45ce83a" y="3.6"/>
      </g>
     </g>
    </g>
    <g id="xtick_8">
     <g id="line2d_19">
      <g>
       <use style="stroke:#000000;stroke-width:0.5;" x="159.705824" xlink:href="#mb7f5d0949e" y="280.8"/>
      </g>
     </g>
     <g id="line2d_20">
      <g>
       <use style="stroke:#000000;stroke-width:0.5;" x="159.705824" xlink:href="#m5cb45ce83a" y="3.6"/>
      </g>
     </g>
    </g>
    <g id="xtick_9">
     <g id="line2d_21">
      <g>
       <use style="stroke:#000000;stroke-width:0.5;" x="180.842187" xlink:href="#mb7f5d0949e" y="280.8"/>
      </g>
     </g>
     <g id="line2d_22">
      <g>
       <use style="stroke:#000000;stroke-width:0.5;" x="180.842187" xlink:href="#m5cb45ce83a" y="3.6"/>
      </g>
     </g>
    </g>
    <g id="xtick_10">
     <g id="line2d_23">
      <g>
       <use style="stroke:#000000;stroke-width:0.5;" x="201.978551" xlink:href="#mb7f5d0949e" y="280.8"/>
      </g>
     </g>
     <g id="line2d_24">
      <g>
       <use style="stroke:#000000;stroke-width:0.5;" x="201.978551" xlink:href="#m5cb45ce83a" y="3.6"/>
      </g>
     </g>
    </g>
    <g id="xtick_11">
     <g id="line2d_25">
      <g>
       <use style="stroke:#000000;stroke-width:0.5;" x="244.251278" xlink:href="#mb7f5d0949e" y="280.8"/>
      </g>
     </g>
     <g id="line2d_26">
      <g>
       <use style="stroke:#000000;stroke-width:0.5;" x="244.251278" xlink:href="#m5cb45ce83a" y="3.6"/>
      </g>
     </g>
    </g>
    <g id="xtick_12">
     <g id="line2d_27">
      <g>
       <use style="stroke:#000000;stroke-width:0.5;" x="265.387642" xlink:href="#mb7f5d0949e" y="280.8"/>
      </g>
     </g>
     <g id="line2d_28">
      <g>
       <use style="stroke:#000000;stroke-width:0.5;" x="265.387642" xlink:href="#m5cb45ce83a" y="3.6"/>
      </g>
     </g>
    </g>
    <g id="xtick_13">
     <g id="line2d_29">
      <g>
       <use style="stroke:#000000;stroke-width:0.5;" x="286.524006" xlink:href="#mb7f5d0949e" y="280.8"/>
      </g>
     </g>
     <g id="line2d_30">
      <g>
       <use style="stroke:#000000;stroke-width:0.5;" x="286.524006" xlink:href="#m5cb45ce83a" y="3.6"/>
      </g>
     </g>
    </g>
    <g id="text_5">
     <!-- n_clusters -->
     <g transform="translate(152.458281 310.737188)scale(0.14 -0.14)">
      <defs>
       <path d="M 16.15625 36.578125 
Q 24.03125 46.046875 31.15625 46.046875 
Q 34.8125 46.046875 37.453125 44.21875 
Q 40.09375 42.390625 41.65625 38.1875 
Q 42.71875 35.25 42.71875 29.203125 
L 42.71875 10.109375 
Q 42.71875 5.859375 43.40625 4.34375 
Q 43.953125 3.125 45.140625 2.4375 
Q 46.34375 1.765625 49.5625 1.765625 
L 49.5625 0 
L 27.4375 0 
L 27.4375 1.765625 
L 28.375 1.765625 
Q 31.5 1.765625 32.734375 2.703125 
Q 33.984375 3.65625 34.46875 5.515625 
Q 34.671875 6.25 34.671875 10.109375 
L 34.671875 28.421875 
Q 34.671875 34.515625 33.078125 37.28125 
Q 31.5 40.046875 27.734375 40.046875 
Q 21.921875 40.046875 16.15625 33.6875 
L 16.15625 10.109375 
Q 16.15625 5.5625 16.703125 4.5 
Q 17.390625 3.078125 18.578125 2.421875 
Q 19.78125 1.765625 23.4375 1.765625 
L 23.4375 0 
L 1.3125 0 
L 1.3125 1.765625 
L 2.296875 1.765625 
Q 5.71875 1.765625 6.90625 3.484375 
Q 8.109375 5.21875 8.109375 10.109375 
L 8.109375 26.703125 
Q 8.109375 34.765625 7.734375 36.515625 
Q 7.375 38.28125 6.609375 38.90625 
Q 5.859375 39.546875 4.59375 39.546875 
Q 3.21875 39.546875 1.3125 38.8125 
L 0.59375 40.578125 
L 14.0625 46.046875 
L 16.15625 46.046875 
z
" id="TimesNewRomanPSMT-110"/>
       <path d="M 50.875 -21.578125 
L -0.828125 -21.578125 
L -0.828125 -17.484375 
L 50.875 -17.484375 
z
" id="TimesNewRomanPSMT-95"/>
       <path d="M 41.109375 17 
Q 39.3125 8.15625 34.03125 3.390625 
Q 28.765625 -1.375 22.359375 -1.375 
Q 14.75 -1.375 9.078125 5.015625 
Q 3.421875 11.421875 3.421875 22.3125 
Q 3.421875 32.859375 9.6875 39.453125 
Q 15.96875 46.046875 24.75 46.046875 
Q 31.34375 46.046875 35.59375 42.546875 
Q 39.84375 39.0625 39.84375 35.296875 
Q 39.84375 33.453125 38.640625 32.296875 
Q 37.453125 31.15625 35.296875 31.15625 
Q 32.421875 31.15625 30.953125 33.015625 
Q 30.125 34.03125 29.859375 36.90625 
Q 29.59375 39.796875 27.875 41.3125 
Q 26.171875 42.78125 23.140625 42.78125 
Q 18.265625 42.78125 15.28125 39.15625 
Q 11.328125 34.375 11.328125 26.515625 
Q 11.328125 18.5 15.25 12.375 
Q 19.1875 6.25 25.875 6.25 
Q 30.671875 6.25 34.46875 9.515625 
Q 37.15625 11.765625 39.703125 17.671875 
z
" id="TimesNewRomanPSMT-99"/>
       <path d="M 18.5 69.4375 
L 18.5 10.109375 
Q 18.5 5.90625 19.109375 4.53125 
Q 19.734375 3.171875 21 2.46875 
Q 22.265625 1.765625 25.734375 1.765625 
L 25.734375 0 
L 3.8125 0 
L 3.8125 1.765625 
Q 6.890625 1.765625 8 2.390625 
Q 9.125 3.03125 9.765625 4.484375 
Q 10.40625 5.953125 10.40625 10.109375 
L 10.40625 50.734375 
Q 10.40625 58.296875 10.0625 60.03125 
Q 9.71875 61.765625 8.953125 62.390625 
Q 8.203125 63.03125 7.03125 63.03125 
Q 5.765625 63.03125 3.8125 62.25 
L 2.984375 63.96875 
L 16.3125 69.4375 
z
" id="TimesNewRomanPSMT-108"/>
       <path d="M 42.328125 44.734375 
L 42.328125 17.625 
Q 42.328125 9.859375 42.6875 8.125 
Q 43.0625 6.390625 43.859375 5.703125 
Q 44.671875 5.03125 45.75 5.03125 
Q 47.265625 5.03125 49.171875 5.859375 
L 49.859375 4.15625 
L 36.46875 -1.375 
L 34.28125 -1.375 
L 34.28125 8.109375 
Q 28.515625 1.859375 25.484375 0.234375 
Q 22.46875 -1.375 19.09375 -1.375 
Q 15.328125 -1.375 12.5625 0.796875 
Q 9.8125 2.984375 8.734375 6.390625 
Q 7.671875 9.8125 7.671875 16.0625 
L 7.671875 36.03125 
Q 7.671875 39.203125 6.984375 40.421875 
Q 6.296875 41.65625 4.953125 42.3125 
Q 3.609375 42.96875 0.09375 42.921875 
L 0.09375 44.734375 
L 15.765625 44.734375 
L 15.765625 14.796875 
Q 15.765625 8.546875 17.9375 6.59375 
Q 20.125 4.640625 23.1875 4.640625 
Q 25.296875 4.640625 27.953125 5.953125 
Q 30.609375 7.28125 34.28125 10.984375 
L 34.28125 36.328125 
Q 34.28125 40.140625 32.890625 41.484375 
Q 31.5 42.828125 27.09375 42.921875 
L 27.09375 44.734375 
z
" id="TimesNewRomanPSMT-117"/>
       <path d="M 32.03125 46.046875 
L 32.03125 30.8125 
L 30.421875 30.8125 
Q 28.5625 37.984375 25.65625 40.578125 
Q 22.75 43.171875 18.265625 43.171875 
Q 14.84375 43.171875 12.734375 41.359375 
Q 10.640625 39.546875 10.640625 37.359375 
Q 10.640625 34.625 12.203125 32.671875 
Q 13.71875 30.671875 18.359375 28.421875 
L 25.484375 24.953125 
Q 35.40625 20.125 35.40625 12.203125 
Q 35.40625 6.109375 30.78125 2.359375 
Q 26.171875 -1.375 20.453125 -1.375 
Q 16.359375 -1.375 11.078125 0.09375 
Q 9.46875 0.59375 8.453125 0.59375 
Q 7.328125 0.59375 6.6875 -0.6875 
L 5.078125 -0.6875 
L 5.078125 15.28125 
L 6.6875 15.28125 
Q 8.0625 8.453125 11.90625 4.984375 
Q 15.765625 1.515625 20.5625 1.515625 
Q 23.921875 1.515625 26.046875 3.484375 
Q 28.171875 5.46875 28.171875 8.25 
Q 28.171875 11.625 25.796875 13.921875 
Q 23.4375 16.21875 16.359375 19.734375 
Q 9.28125 23.25 7.078125 26.078125 
Q 4.890625 28.859375 4.890625 33.109375 
Q 4.890625 38.625 8.671875 42.328125 
Q 12.453125 46.046875 18.453125 46.046875 
Q 21.09375 46.046875 24.859375 44.921875 
Q 27.34375 44.1875 28.171875 44.1875 
Q 28.953125 44.1875 29.390625 44.53125 
Q 29.828125 44.875 30.421875 46.046875 
z
" id="TimesNewRomanPSMT-115"/>
       <path d="M 16.109375 59.421875 
L 16.109375 44.734375 
L 26.5625 44.734375 
L 26.5625 41.3125 
L 16.109375 41.3125 
L 16.109375 12.3125 
Q 16.109375 7.953125 17.359375 6.4375 
Q 18.609375 4.9375 20.5625 4.9375 
Q 22.171875 4.9375 23.6875 5.9375 
Q 25.203125 6.9375 26.03125 8.890625 
L 27.9375 8.890625 
Q 26.21875 4.109375 23.09375 1.6875 
Q 19.96875 -0.734375 16.65625 -0.734375 
Q 14.40625 -0.734375 12.25 0.515625 
Q 10.109375 1.765625 9.078125 4.078125 
Q 8.0625 6.390625 8.0625 11.234375 
L 8.0625 41.3125 
L 0.984375 41.3125 
L 0.984375 42.921875 
Q 3.65625 44 6.46875 46.5625 
Q 9.28125 49.125 11.46875 52.640625 
Q 12.59375 54.5 14.59375 59.421875 
z
" id="TimesNewRomanPSMT-116"/>
       <path d="M 10.640625 27.875 
Q 10.59375 17.921875 15.484375 12.25 
Q 20.359375 6.59375 26.953125 6.59375 
Q 31.34375 6.59375 34.59375 9 
Q 37.84375 11.421875 40.046875 17.28125 
L 41.546875 16.3125 
Q 40.53125 9.625 35.59375 4.125 
Q 30.671875 -1.375 23.25 -1.375 
Q 15.1875 -1.375 9.453125 4.90625 
Q 3.71875 11.1875 3.71875 21.78125 
Q 3.71875 33.25 9.59375 39.671875 
Q 15.484375 46.09375 24.359375 46.09375 
Q 31.890625 46.09375 36.71875 41.140625 
Q 41.546875 36.1875 41.546875 27.875 
z
M 10.640625 30.71875 
L 31.34375 30.71875 
Q 31.109375 35.015625 30.328125 36.765625 
Q 29.109375 39.5 26.6875 41.0625 
Q 24.265625 42.625 21.625 42.625 
Q 17.578125 42.625 14.375 39.46875 
Q 11.1875 36.328125 10.640625 30.71875 
z
" id="TimesNewRomanPSMT-101"/>
       <path d="M 16.21875 46.046875 
L 16.21875 35.984375 
Q 21.828125 46.046875 27.734375 46.046875 
Q 30.421875 46.046875 32.171875 44.40625 
Q 33.9375 42.78125 33.9375 40.625 
Q 33.9375 38.71875 32.65625 37.390625 
Q 31.390625 36.078125 29.640625 36.078125 
Q 27.9375 36.078125 25.8125 37.765625 
Q 23.6875 39.453125 22.65625 39.453125 
Q 21.78125 39.453125 20.75 38.484375 
Q 18.5625 36.46875 16.21875 31.890625 
L 16.21875 10.453125 
Q 16.21875 6.734375 17.140625 4.828125 
Q 17.78125 3.515625 19.390625 2.640625 
Q 21 1.765625 24.03125 1.765625 
L 24.03125 0 
L 1.125 0 
L 1.125 1.765625 
Q 4.546875 1.765625 6.203125 2.828125 
Q 7.421875 3.609375 7.90625 5.328125 
Q 8.15625 6.15625 8.15625 10.0625 
L 8.15625 27.390625 
Q 8.15625 35.203125 7.828125 36.6875 
Q 7.515625 38.1875 6.65625 38.859375 
Q 5.8125 39.546875 4.546875 39.546875 
Q 3.03125 39.546875 1.125 38.8125 
L 0.640625 40.578125 
L 14.15625 46.046875 
z
" id="TimesNewRomanPSMT-114"/>
      </defs>
      <use xlink:href="#TimesNewRomanPSMT-110"/>
      <use x="50" xlink:href="#TimesNewRomanPSMT-95"/>
      <use x="100" xlink:href="#TimesNewRomanPSMT-99"/>
      <use x="144.384766" xlink:href="#TimesNewRomanPSMT-108"/>
      <use x="172.167969" xlink:href="#TimesNewRomanPSMT-117"/>
      <use x="222.167969" xlink:href="#TimesNewRomanPSMT-115"/>
      <use x="261.083984" xlink:href="#TimesNewRomanPSMT-116"/>
      <use x="288.867188" xlink:href="#TimesNewRomanPSMT-101"/>
      <use x="333.251953" xlink:href="#TimesNewRomanPSMT-114"/>
      <use x="366.552734" xlink:href="#TimesNewRomanPSMT-115"/>
     </g>
    </g>
   </g>
   <g id="matplotlib.axis_2">
    <g id="ytick_1">
     <g id="line2d_31">
      <path clip-path="url(#pe8d5f0f371)" d="M 41.342188 267.218021 
L 320.342188 267.218021 
" style="fill:none;stroke:#000000;stroke-dasharray:1.85,0.8;stroke-dashoffset:0;stroke-opacity:0.5;stroke-width:0.5;"/>
     </g>
     <g id="line2d_32">
      <defs>
       <path d="M 0 0 
L 3 0 
" id="m3ba0049fea" style="stroke:#000000;stroke-width:0.5;"/>
      </defs>
      <g>
       <use style="stroke:#000000;stroke-width:0.5;" x="41.342188" xlink:href="#m3ba0049fea" y="267.218021"/>
      </g>
     </g>
     <g id="line2d_33">
      <defs>
       <path d="M 0 0 
L -3 0 
" id="mad3f982dc2" style="stroke:#000000;stroke-width:0.5;"/>
      </defs>
      <g>
       <use style="stroke:#000000;stroke-width:0.5;" x="320.342188" xlink:href="#mad3f982dc2" y="267.218021"/>
      </g>
     </g>
     <g id="text_6">
      <!-- 4.0 -->
      <g transform="translate(20.342188 272.078646)scale(0.14 -0.14)">
       <defs>
        <path d="M 12.5 9.46875 
Q 14.796875 9.46875 16.359375 7.875 
Q 17.921875 6.296875 17.921875 4.046875 
Q 17.921875 1.8125 16.328125 0.21875 
Q 14.75 -1.375 12.5 -1.375 
Q 10.25 -1.375 8.65625 0.21875 
Q 7.078125 1.8125 7.078125 4.046875 
Q 7.078125 6.34375 8.65625 7.90625 
Q 10.25 9.46875 12.5 9.46875 
z
" id="TimesNewRomanPSMT-46"/>
        <path d="M 3.609375 32.71875 
Q 3.609375 44.046875 7.03125 52.21875 
Q 10.453125 60.40625 16.109375 64.40625 
Q 20.515625 67.578125 25.203125 67.578125 
Q 32.8125 67.578125 38.875 59.8125 
Q 46.4375 50.203125 46.4375 33.734375 
Q 46.4375 22.21875 43.109375 14.15625 
Q 39.796875 6.109375 34.640625 2.46875 
Q 29.5 -1.171875 24.703125 -1.171875 
Q 15.234375 -1.171875 8.9375 10.015625 
Q 3.609375 19.4375 3.609375 32.71875 
z
M 13.1875 31.5 
Q 13.1875 17.828125 16.546875 9.1875 
Q 19.34375 1.90625 24.859375 1.90625 
Q 27.484375 1.90625 30.3125 4.265625 
Q 33.15625 6.640625 34.625 12.203125 
Q 36.859375 20.609375 36.859375 35.890625 
Q 36.859375 47.21875 34.515625 54.78125 
Q 32.765625 60.40625 29.984375 62.75 
Q 27.984375 64.359375 25.140625 64.359375 
Q 21.828125 64.359375 19.234375 61.375 
Q 15.71875 57.328125 14.453125 48.625 
Q 13.1875 39.9375 13.1875 31.5 
z
" id="TimesNewRomanPSMT-48"/>
       </defs>
       <use xlink:href="#TimesNewRomanPSMT-52"/>
       <use x="50" xlink:href="#TimesNewRomanPSMT-46"/>
       <use x="75" xlink:href="#TimesNewRomanPSMT-48"/>
      </g>
     </g>
    </g>
    <g id="ytick_2">
     <g id="line2d_34">
      <path clip-path="url(#pe8d5f0f371)" d="M 41.342188 226.77025 
L 320.342188 226.77025 
" style="fill:none;stroke:#000000;stroke-dasharray:1.85,0.8;stroke-dashoffset:0;stroke-opacity:0.5;stroke-width:0.5;"/>
     </g>
     <g id="line2d_35">
      <g>
       <use style="stroke:#000000;stroke-width:0.5;" x="41.342188" xlink:href="#m3ba0049fea" y="226.77025"/>
      </g>
     </g>
     <g id="line2d_36">
      <g>
       <use style="stroke:#000000;stroke-width:0.5;" x="320.342188" xlink:href="#mad3f982dc2" y="226.77025"/>
      </g>
     </g>
     <g id="text_7">
      <!-- 4.5 -->
      <g transform="translate(20.342188 231.630875)scale(0.14 -0.14)">
       <defs>
        <path d="M 43.40625 66.21875 
L 39.59375 57.90625 
L 19.671875 57.90625 
L 15.328125 49.03125 
Q 28.265625 47.125 35.84375 39.40625 
Q 42.328125 32.765625 42.328125 23.78125 
Q 42.328125 18.5625 40.203125 14.109375 
Q 38.09375 9.671875 34.859375 6.546875 
Q 31.640625 3.421875 27.6875 1.515625 
Q 22.078125 -1.171875 16.15625 -1.171875 
Q 10.203125 -1.171875 7.484375 0.84375 
Q 4.78125 2.875 4.78125 5.328125 
Q 4.78125 6.6875 5.90625 7.734375 
Q 7.03125 8.796875 8.734375 8.796875 
Q 10.015625 8.796875 10.96875 8.40625 
Q 11.921875 8.015625 14.203125 6.390625 
Q 17.875 3.859375 21.625 3.859375 
Q 27.34375 3.859375 31.65625 8.171875 
Q 35.984375 12.5 35.984375 18.703125 
Q 35.984375 24.703125 32.125 29.90625 
Q 28.265625 35.109375 21.484375 37.9375 
Q 16.15625 40.140625 6.984375 40.484375 
L 19.671875 66.21875 
z
" id="TimesNewRomanPSMT-53"/>
       </defs>
       <use xlink:href="#TimesNewRomanPSMT-52"/>
       <use x="50" xlink:href="#TimesNewRomanPSMT-46"/>
       <use x="75" xlink:href="#TimesNewRomanPSMT-53"/>
      </g>
     </g>
    </g>
    <g id="ytick_3">
     <g id="line2d_37">
      <path clip-path="url(#pe8d5f0f371)" d="M 41.342188 186.322479 
L 320.342188 186.322479 
" style="fill:none;stroke:#000000;stroke-dasharray:1.85,0.8;stroke-dashoffset:0;stroke-opacity:0.5;stroke-width:0.5;"/>
     </g>
     <g id="line2d_38">
      <g>
       <use style="stroke:#000000;stroke-width:0.5;" x="41.342188" xlink:href="#m3ba0049fea" y="186.322479"/>
      </g>
     </g>
     <g id="line2d_39">
      <g>
       <use style="stroke:#000000;stroke-width:0.5;" x="320.342188" xlink:href="#mad3f982dc2" y="186.322479"/>
      </g>
     </g>
     <g id="text_8">
      <!-- 5.0 -->
      <g transform="translate(20.342188 191.183104)scale(0.14 -0.14)">
       <use xlink:href="#TimesNewRomanPSMT-53"/>
       <use x="50" xlink:href="#TimesNewRomanPSMT-46"/>
       <use x="75" xlink:href="#TimesNewRomanPSMT-48"/>
      </g>
     </g>
    </g>
    <g id="ytick_4">
     <g id="line2d_40">
      <path clip-path="url(#pe8d5f0f371)" d="M 41.342188 145.874708 
L 320.342188 145.874708 
" style="fill:none;stroke:#000000;stroke-dasharray:1.85,0.8;stroke-dashoffset:0;stroke-opacity:0.5;stroke-width:0.5;"/>
     </g>
     <g id="line2d_41">
      <g>
       <use style="stroke:#000000;stroke-width:0.5;" x="41.342188" xlink:href="#m3ba0049fea" y="145.874708"/>
      </g>
     </g>
     <g id="line2d_42">
      <g>
       <use style="stroke:#000000;stroke-width:0.5;" x="320.342188" xlink:href="#mad3f982dc2" y="145.874708"/>
      </g>
     </g>
     <g id="text_9">
      <!-- 5.5 -->
      <g transform="translate(20.342188 150.735333)scale(0.14 -0.14)">
       <use xlink:href="#TimesNewRomanPSMT-53"/>
       <use x="50" xlink:href="#TimesNewRomanPSMT-46"/>
       <use x="75" xlink:href="#TimesNewRomanPSMT-53"/>
      </g>
     </g>
    </g>
    <g id="ytick_5">
     <g id="line2d_43">
      <path clip-path="url(#pe8d5f0f371)" d="M 41.342188 105.426938 
L 320.342188 105.426938 
" style="fill:none;stroke:#000000;stroke-dasharray:1.85,0.8;stroke-dashoffset:0;stroke-opacity:0.5;stroke-width:0.5;"/>
     </g>
     <g id="line2d_44">
      <g>
       <use style="stroke:#000000;stroke-width:0.5;" x="41.342188" xlink:href="#m3ba0049fea" y="105.426938"/>
      </g>
     </g>
     <g id="line2d_45">
      <g>
       <use style="stroke:#000000;stroke-width:0.5;" x="320.342188" xlink:href="#mad3f982dc2" y="105.426938"/>
      </g>
     </g>
     <g id="text_10">
      <!-- 6.0 -->
      <g transform="translate(20.342188 110.287563)scale(0.14 -0.14)">
       <use xlink:href="#TimesNewRomanPSMT-54"/>
       <use x="50" xlink:href="#TimesNewRomanPSMT-46"/>
       <use x="75" xlink:href="#TimesNewRomanPSMT-48"/>
      </g>
     </g>
    </g>
    <g id="ytick_6">
     <g id="line2d_46">
      <path clip-path="url(#pe8d5f0f371)" d="M 41.342188 64.979167 
L 320.342188 64.979167 
" style="fill:none;stroke:#000000;stroke-dasharray:1.85,0.8;stroke-dashoffset:0;stroke-opacity:0.5;stroke-width:0.5;"/>
     </g>
     <g id="line2d_47">
      <g>
       <use style="stroke:#000000;stroke-width:0.5;" x="41.342188" xlink:href="#m3ba0049fea" y="64.979167"/>
      </g>
     </g>
     <g id="line2d_48">
      <g>
       <use style="stroke:#000000;stroke-width:0.5;" x="320.342188" xlink:href="#mad3f982dc2" y="64.979167"/>
      </g>
     </g>
     <g id="text_11">
      <!-- 6.5 -->
      <g transform="translate(20.342188 69.839792)scale(0.14 -0.14)">
       <use xlink:href="#TimesNewRomanPSMT-54"/>
       <use x="50" xlink:href="#TimesNewRomanPSMT-46"/>
       <use x="75" xlink:href="#TimesNewRomanPSMT-53"/>
      </g>
     </g>
    </g>
    <g id="ytick_7">
     <g id="line2d_49">
      <path clip-path="url(#pe8d5f0f371)" d="M 41.342188 24.531396 
L 320.342188 24.531396 
" style="fill:none;stroke:#000000;stroke-dasharray:1.85,0.8;stroke-dashoffset:0;stroke-opacity:0.5;stroke-width:0.5;"/>
     </g>
     <g id="line2d_50">
      <g>
       <use style="stroke:#000000;stroke-width:0.5;" x="41.342188" xlink:href="#m3ba0049fea" y="24.531396"/>
      </g>
     </g>
     <g id="line2d_51">
      <g>
       <use style="stroke:#000000;stroke-width:0.5;" x="320.342188" xlink:href="#mad3f982dc2" y="24.531396"/>
      </g>
     </g>
     <g id="text_12">
      <!-- 7.0 -->
      <g transform="translate(20.342188 29.392021)scale(0.14 -0.14)">
       <defs>
        <path d="M 10.0625 66.21875 
L 45.5625 66.21875 
L 45.5625 64.359375 
L 23.484375 -1.375 
L 18.015625 -1.375 
L 37.796875 58.25 
L 19.578125 58.25 
Q 14.0625 58.25 11.71875 56.9375 
Q 7.625 54.6875 5.125 50 
L 3.71875 50.53125 
z
" id="TimesNewRomanPSMT-55"/>
       </defs>
       <use xlink:href="#TimesNewRomanPSMT-55"/>
       <use x="50" xlink:href="#TimesNewRomanPSMT-46"/>
       <use x="75" xlink:href="#TimesNewRomanPSMT-48"/>
      </g>
     </g>
    </g>
    <g id="ytick_8">
     <g id="line2d_52">
      <defs>
       <path d="M 0 0 
L 1.5 0 
" id="m874647d67e" style="stroke:#000000;stroke-width:0.5;"/>
      </defs>
      <g>
       <use style="stroke:#000000;stroke-width:0.5;" x="41.342188" xlink:href="#m874647d67e" y="275.307575"/>
      </g>
     </g>
     <g id="line2d_53">
      <defs>
       <path d="M 0 0 
L -1.5 0 
" id="m06fe51321a" style="stroke:#000000;stroke-width:0.5;"/>
      </defs>
      <g>
       <use style="stroke:#000000;stroke-width:0.5;" x="320.342188" xlink:href="#m06fe51321a" y="275.307575"/>
      </g>
     </g>
    </g>
    <g id="ytick_9">
     <g id="line2d_54">
      <g>
       <use style="stroke:#000000;stroke-width:0.5;" x="41.342188" xlink:href="#m874647d67e" y="259.128467"/>
      </g>
     </g>
     <g id="line2d_55">
      <g>
       <use style="stroke:#000000;stroke-width:0.5;" x="320.342188" xlink:href="#m06fe51321a" y="259.128467"/>
      </g>
     </g>
    </g>
    <g id="ytick_10">
     <g id="line2d_56">
      <g>
       <use style="stroke:#000000;stroke-width:0.5;" x="41.342188" xlink:href="#m874647d67e" y="251.038913"/>
      </g>
     </g>
     <g id="line2d_57">
      <g>
       <use style="stroke:#000000;stroke-width:0.5;" x="320.342188" xlink:href="#m06fe51321a" y="251.038913"/>
      </g>
     </g>
    </g>
    <g id="ytick_11">
     <g id="line2d_58">
      <g>
       <use style="stroke:#000000;stroke-width:0.5;" x="41.342188" xlink:href="#m874647d67e" y="242.949359"/>
      </g>
     </g>
     <g id="line2d_59">
      <g>
       <use style="stroke:#000000;stroke-width:0.5;" x="320.342188" xlink:href="#m06fe51321a" y="242.949359"/>
      </g>
     </g>
    </g>
    <g id="ytick_12">
     <g id="line2d_60">
      <g>
       <use style="stroke:#000000;stroke-width:0.5;" x="41.342188" xlink:href="#m874647d67e" y="234.859804"/>
      </g>
     </g>
     <g id="line2d_61">
      <g>
       <use style="stroke:#000000;stroke-width:0.5;" x="320.342188" xlink:href="#m06fe51321a" y="234.859804"/>
      </g>
     </g>
    </g>
    <g id="ytick_13">
     <g id="line2d_62">
      <g>
       <use style="stroke:#000000;stroke-width:0.5;" x="41.342188" xlink:href="#m874647d67e" y="218.680696"/>
      </g>
     </g>
     <g id="line2d_63">
      <g>
       <use style="stroke:#000000;stroke-width:0.5;" x="320.342188" xlink:href="#m06fe51321a" y="218.680696"/>
      </g>
     </g>
    </g>
    <g id="ytick_14">
     <g id="line2d_64">
      <g>
       <use style="stroke:#000000;stroke-width:0.5;" x="41.342188" xlink:href="#m874647d67e" y="210.591142"/>
      </g>
     </g>
     <g id="line2d_65">
      <g>
       <use style="stroke:#000000;stroke-width:0.5;" x="320.342188" xlink:href="#m06fe51321a" y="210.591142"/>
      </g>
     </g>
    </g>
    <g id="ytick_15">
     <g id="line2d_66">
      <g>
       <use style="stroke:#000000;stroke-width:0.5;" x="41.342188" xlink:href="#m874647d67e" y="202.501588"/>
      </g>
     </g>
     <g id="line2d_67">
      <g>
       <use style="stroke:#000000;stroke-width:0.5;" x="320.342188" xlink:href="#m06fe51321a" y="202.501588"/>
      </g>
     </g>
    </g>
    <g id="ytick_16">
     <g id="line2d_68">
      <g>
       <use style="stroke:#000000;stroke-width:0.5;" x="41.342188" xlink:href="#m874647d67e" y="194.412034"/>
      </g>
     </g>
     <g id="line2d_69">
      <g>
       <use style="stroke:#000000;stroke-width:0.5;" x="320.342188" xlink:href="#m06fe51321a" y="194.412034"/>
      </g>
     </g>
    </g>
    <g id="ytick_17">
     <g id="line2d_70">
      <g>
       <use style="stroke:#000000;stroke-width:0.5;" x="41.342188" xlink:href="#m874647d67e" y="178.232925"/>
      </g>
     </g>
     <g id="line2d_71">
      <g>
       <use style="stroke:#000000;stroke-width:0.5;" x="320.342188" xlink:href="#m06fe51321a" y="178.232925"/>
      </g>
     </g>
    </g>
    <g id="ytick_18">
     <g id="line2d_72">
      <g>
       <use style="stroke:#000000;stroke-width:0.5;" x="41.342188" xlink:href="#m874647d67e" y="170.143371"/>
      </g>
     </g>
     <g id="line2d_73">
      <g>
       <use style="stroke:#000000;stroke-width:0.5;" x="320.342188" xlink:href="#m06fe51321a" y="170.143371"/>
      </g>
     </g>
    </g>
    <g id="ytick_19">
     <g id="line2d_74">
      <g>
       <use style="stroke:#000000;stroke-width:0.5;" x="41.342188" xlink:href="#m874647d67e" y="162.053817"/>
      </g>
     </g>
     <g id="line2d_75">
      <g>
       <use style="stroke:#000000;stroke-width:0.5;" x="320.342188" xlink:href="#m06fe51321a" y="162.053817"/>
      </g>
     </g>
    </g>
    <g id="ytick_20">
     <g id="line2d_76">
      <g>
       <use style="stroke:#000000;stroke-width:0.5;" x="41.342188" xlink:href="#m874647d67e" y="153.964263"/>
      </g>
     </g>
     <g id="line2d_77">
      <g>
       <use style="stroke:#000000;stroke-width:0.5;" x="320.342188" xlink:href="#m06fe51321a" y="153.964263"/>
      </g>
     </g>
    </g>
    <g id="ytick_21">
     <g id="line2d_78">
      <g>
       <use style="stroke:#000000;stroke-width:0.5;" x="41.342188" xlink:href="#m874647d67e" y="137.785154"/>
      </g>
     </g>
     <g id="line2d_79">
      <g>
       <use style="stroke:#000000;stroke-width:0.5;" x="320.342188" xlink:href="#m06fe51321a" y="137.785154"/>
      </g>
     </g>
    </g>
    <g id="ytick_22">
     <g id="line2d_80">
      <g>
       <use style="stroke:#000000;stroke-width:0.5;" x="41.342188" xlink:href="#m874647d67e" y="129.6956"/>
      </g>
     </g>
     <g id="line2d_81">
      <g>
       <use style="stroke:#000000;stroke-width:0.5;" x="320.342188" xlink:href="#m06fe51321a" y="129.6956"/>
      </g>
     </g>
    </g>
    <g id="ytick_23">
     <g id="line2d_82">
      <g>
       <use style="stroke:#000000;stroke-width:0.5;" x="41.342188" xlink:href="#m874647d67e" y="121.606046"/>
      </g>
     </g>
     <g id="line2d_83">
      <g>
       <use style="stroke:#000000;stroke-width:0.5;" x="320.342188" xlink:href="#m06fe51321a" y="121.606046"/>
      </g>
     </g>
    </g>
    <g id="ytick_24">
     <g id="line2d_84">
      <g>
       <use style="stroke:#000000;stroke-width:0.5;" x="41.342188" xlink:href="#m874647d67e" y="113.516492"/>
      </g>
     </g>
     <g id="line2d_85">
      <g>
       <use style="stroke:#000000;stroke-width:0.5;" x="320.342188" xlink:href="#m06fe51321a" y="113.516492"/>
      </g>
     </g>
    </g>
    <g id="ytick_25">
     <g id="line2d_86">
      <g>
       <use style="stroke:#000000;stroke-width:0.5;" x="41.342188" xlink:href="#m874647d67e" y="97.337383"/>
      </g>
     </g>
     <g id="line2d_87">
      <g>
       <use style="stroke:#000000;stroke-width:0.5;" x="320.342188" xlink:href="#m06fe51321a" y="97.337383"/>
      </g>
     </g>
    </g>
    <g id="ytick_26">
     <g id="line2d_88">
      <g>
       <use style="stroke:#000000;stroke-width:0.5;" x="41.342188" xlink:href="#m874647d67e" y="89.247829"/>
      </g>
     </g>
     <g id="line2d_89">
      <g>
       <use style="stroke:#000000;stroke-width:0.5;" x="320.342188" xlink:href="#m06fe51321a" y="89.247829"/>
      </g>
     </g>
    </g>
    <g id="ytick_27">
     <g id="line2d_90">
      <g>
       <use style="stroke:#000000;stroke-width:0.5;" x="41.342188" xlink:href="#m874647d67e" y="81.158275"/>
      </g>
     </g>
     <g id="line2d_91">
      <g>
       <use style="stroke:#000000;stroke-width:0.5;" x="320.342188" xlink:href="#m06fe51321a" y="81.158275"/>
      </g>
     </g>
    </g>
    <g id="ytick_28">
     <g id="line2d_92">
      <g>
       <use style="stroke:#000000;stroke-width:0.5;" x="41.342188" xlink:href="#m874647d67e" y="73.068721"/>
      </g>
     </g>
     <g id="line2d_93">
      <g>
       <use style="stroke:#000000;stroke-width:0.5;" x="320.342188" xlink:href="#m06fe51321a" y="73.068721"/>
      </g>
     </g>
    </g>
    <g id="ytick_29">
     <g id="line2d_94">
      <g>
       <use style="stroke:#000000;stroke-width:0.5;" x="41.342188" xlink:href="#m874647d67e" y="56.889613"/>
      </g>
     </g>
     <g id="line2d_95">
      <g>
       <use style="stroke:#000000;stroke-width:0.5;" x="320.342188" xlink:href="#m06fe51321a" y="56.889613"/>
      </g>
     </g>
    </g>
    <g id="ytick_30">
     <g id="line2d_96">
      <g>
       <use style="stroke:#000000;stroke-width:0.5;" x="41.342188" xlink:href="#m874647d67e" y="48.800058"/>
      </g>
     </g>
     <g id="line2d_97">
      <g>
       <use style="stroke:#000000;stroke-width:0.5;" x="320.342188" xlink:href="#m06fe51321a" y="48.800058"/>
      </g>
     </g>
    </g>
    <g id="ytick_31">
     <g id="line2d_98">
      <g>
       <use style="stroke:#000000;stroke-width:0.5;" x="41.342188" xlink:href="#m874647d67e" y="40.710504"/>
      </g>
     </g>
     <g id="line2d_99">
      <g>
       <use style="stroke:#000000;stroke-width:0.5;" x="320.342188" xlink:href="#m06fe51321a" y="40.710504"/>
      </g>
     </g>
    </g>
    <g id="ytick_32">
     <g id="line2d_100">
      <g>
       <use style="stroke:#000000;stroke-width:0.5;" x="41.342188" xlink:href="#m874647d67e" y="32.62095"/>
      </g>
     </g>
     <g id="line2d_101">
      <g>
       <use style="stroke:#000000;stroke-width:0.5;" x="320.342188" xlink:href="#m06fe51321a" y="32.62095"/>
      </g>
     </g>
    </g>
    <g id="ytick_33">
     <g id="line2d_102">
      <g>
       <use style="stroke:#000000;stroke-width:0.5;" x="41.342188" xlink:href="#m874647d67e" y="16.441842"/>
      </g>
     </g>
     <g id="line2d_103">
      <g>
       <use style="stroke:#000000;stroke-width:0.5;" x="320.342188" xlink:href="#m06fe51321a" y="16.441842"/>
      </g>
     </g>
    </g>
    <g id="ytick_34">
     <g id="line2d_104">
      <g>
       <use style="stroke:#000000;stroke-width:0.5;" x="41.342188" xlink:href="#m874647d67e" y="8.352288"/>
      </g>
     </g>
     <g id="line2d_105">
      <g>
       <use style="stroke:#000000;stroke-width:0.5;" x="320.342188" xlink:href="#m06fe51321a" y="8.352288"/>
      </g>
     </g>
    </g>
    <g id="text_13">
     <!-- calinski_harabasz_score -->
     <g transform="translate(13.32125 210.227969)rotate(-90)scale(0.14 -0.14)">
      <defs>
       <path d="M 28.46875 6.453125 
Q 21.578125 1.125 19.828125 0.296875 
Q 17.1875 -0.921875 14.203125 -0.921875 
Q 9.578125 -0.921875 6.5625 2.25 
Q 3.5625 5.421875 3.5625 10.59375 
Q 3.5625 13.875 5.03125 16.265625 
Q 7.03125 19.578125 11.984375 22.5 
Q 16.9375 25.4375 28.46875 29.640625 
L 28.46875 31.390625 
Q 28.46875 38.09375 26.34375 40.578125 
Q 24.21875 43.0625 20.171875 43.0625 
Q 17.09375 43.0625 15.28125 41.40625 
Q 13.421875 39.75 13.421875 37.59375 
L 13.53125 34.765625 
Q 13.53125 32.515625 12.375 31.296875 
Q 11.234375 30.078125 9.375 30.078125 
Q 7.5625 30.078125 6.421875 31.34375 
Q 5.28125 32.625 5.28125 34.8125 
Q 5.28125 39.015625 9.578125 42.53125 
Q 13.875 46.046875 21.625 46.046875 
Q 27.59375 46.046875 31.390625 44.046875 
Q 34.28125 42.53125 35.640625 39.3125 
Q 36.53125 37.203125 36.53125 30.71875 
L 36.53125 15.53125 
Q 36.53125 9.125 36.765625 7.6875 
Q 37.015625 6.25 37.578125 5.765625 
Q 38.140625 5.28125 38.875 5.28125 
Q 39.65625 5.28125 40.234375 5.609375 
Q 41.265625 6.25 44.1875 9.1875 
L 44.1875 6.453125 
Q 38.71875 -0.875 33.734375 -0.875 
Q 31.34375 -0.875 29.921875 0.78125 
Q 28.515625 2.4375 28.46875 6.453125 
z
M 28.46875 9.625 
L 28.46875 26.65625 
Q 21.09375 23.734375 18.953125 22.515625 
Q 15.09375 20.359375 13.421875 18.015625 
Q 11.765625 15.671875 11.765625 12.890625 
Q 11.765625 9.375 13.859375 7.046875 
Q 15.96875 4.734375 18.703125 4.734375 
Q 22.40625 4.734375 28.46875 9.625 
z
" id="TimesNewRomanPSMT-97"/>
       <path d="M 14.5 69.4375 
Q 16.546875 69.4375 17.984375 67.984375 
Q 19.4375 66.546875 19.4375 64.5 
Q 19.4375 62.453125 17.984375 60.984375 
Q 16.546875 59.515625 14.5 59.515625 
Q 12.453125 59.515625 10.984375 60.984375 
Q 9.515625 62.453125 9.515625 64.5 
Q 9.515625 66.546875 10.953125 67.984375 
Q 12.40625 69.4375 14.5 69.4375 
z
M 18.5625 46.046875 
L 18.5625 10.109375 
Q 18.5625 5.90625 19.171875 4.515625 
Q 19.78125 3.125 20.96875 2.4375 
Q 22.171875 1.765625 25.34375 1.765625 
L 25.34375 0 
L 3.609375 0 
L 3.609375 1.765625 
Q 6.890625 1.765625 8 2.390625 
Q 9.125 3.03125 9.78125 4.484375 
Q 10.453125 5.953125 10.453125 10.109375 
L 10.453125 27.34375 
Q 10.453125 34.625 10.015625 36.765625 
Q 9.671875 38.328125 8.9375 38.9375 
Q 8.203125 39.546875 6.9375 39.546875 
Q 5.5625 39.546875 3.609375 38.8125 
L 2.9375 40.578125 
L 16.40625 46.046875 
z
" id="TimesNewRomanPSMT-105"/>
       <path d="M 16.359375 69.4375 
L 16.359375 24.953125 
L 27.734375 35.296875 
Q 31.34375 38.625 31.9375 39.5 
Q 32.328125 40.09375 32.328125 40.671875 
Q 32.328125 41.65625 31.515625 42.359375 
Q 30.71875 43.0625 28.859375 43.171875 
L 28.859375 44.734375 
L 48.296875 44.734375 
L 48.296875 43.171875 
Q 44.28125 43.0625 41.625 41.9375 
Q 38.96875 40.828125 35.796875 37.9375 
L 24.3125 27.34375 
L 35.796875 12.84375 
Q 40.578125 6.84375 42.234375 5.21875 
Q 44.578125 2.9375 46.34375 2.25 
Q 47.5625 1.765625 50.59375 1.765625 
L 50.59375 0 
L 28.859375 0 
L 28.859375 1.765625 
Q 30.71875 1.8125 31.375 2.3125 
Q 32.03125 2.828125 32.03125 3.765625 
Q 32.03125 4.890625 30.078125 7.375 
L 16.359375 24.90625 
L 16.359375 10.0625 
Q 16.359375 5.71875 16.96875 4.34375 
Q 17.578125 2.984375 18.703125 2.390625 
Q 19.828125 1.8125 23.578125 1.765625 
L 23.578125 0 
L 0.828125 0 
L 0.828125 1.765625 
Q 4.25 1.765625 5.953125 2.59375 
Q 6.984375 3.125 7.515625 4.25 
Q 8.25 5.859375 8.25 9.8125 
L 8.25 50.53125 
Q 8.25 58.296875 7.90625 60.03125 
Q 7.5625 61.765625 6.78125 62.421875 
Q 6 63.09375 4.734375 63.09375 
Q 3.71875 63.09375 1.65625 62.25 
L 0.828125 63.96875 
L 14.109375 69.4375 
z
" id="TimesNewRomanPSMT-107"/>
       <path d="M 16.265625 69.4375 
L 16.265625 36.71875 
Q 21.6875 42.671875 24.859375 44.359375 
Q 28.03125 46.046875 31.203125 46.046875 
Q 35.015625 46.046875 37.75 43.9375 
Q 40.484375 41.84375 41.796875 37.359375 
Q 42.71875 34.234375 42.71875 25.921875 
L 42.71875 10.109375 
Q 42.71875 5.859375 43.40625 4.296875 
Q 43.890625 3.125 45.0625 2.4375 
Q 46.234375 1.765625 49.359375 1.765625 
L 49.359375 0 
L 27.390625 0 
L 27.390625 1.765625 
L 28.421875 1.765625 
Q 31.546875 1.765625 32.765625 2.703125 
Q 33.984375 3.65625 34.46875 5.515625 
Q 34.625 6.296875 34.625 10.109375 
L 34.625 25.921875 
Q 34.625 33.25 33.859375 35.546875 
Q 33.109375 37.84375 31.4375 38.984375 
Q 29.78125 40.140625 27.4375 40.140625 
Q 25.046875 40.140625 22.453125 38.859375 
Q 19.875 37.59375 16.265625 33.734375 
L 16.265625 10.109375 
Q 16.265625 5.515625 16.765625 4.390625 
Q 17.28125 3.265625 18.671875 2.515625 
Q 20.0625 1.765625 23.484375 1.765625 
L 23.484375 0 
L 1.3125 0 
L 1.3125 1.765625 
Q 4.296875 1.765625 6 2.6875 
Q 6.984375 3.171875 7.5625 4.53125 
Q 8.15625 5.90625 8.15625 10.109375 
L 8.15625 50.59375 
Q 8.15625 58.25 7.78125 60 
Q 7.421875 61.765625 6.65625 62.390625 
Q 5.90625 63.03125 4.640625 63.03125 
Q 3.609375 63.03125 1.3125 62.25 
L 0.640625 63.96875 
L 14.015625 69.4375 
z
" id="TimesNewRomanPSMT-104"/>
       <path d="M 15.375 37.015625 
Q 21.875 46.046875 29.390625 46.046875 
Q 36.28125 46.046875 41.40625 40.15625 
Q 46.53125 34.28125 46.53125 24.078125 
Q 46.53125 12.15625 38.625 4.890625 
Q 31.84375 -1.375 23.484375 -1.375 
Q 19.578125 -1.375 15.546875 0.046875 
Q 11.53125 1.46875 7.328125 4.296875 
L 7.328125 50.640625 
Q 7.328125 58.25 6.953125 60 
Q 6.59375 61.765625 5.8125 62.390625 
Q 5.03125 63.03125 3.859375 63.03125 
Q 2.484375 63.03125 0.4375 62.25 
L -0.25 63.96875 
L 13.1875 69.4375 
L 15.375 69.4375 
z
M 15.375 33.890625 
L 15.375 7.125 
Q 17.875 4.6875 20.53125 3.4375 
Q 23.1875 2.203125 25.984375 2.203125 
Q 30.421875 2.203125 34.25 7.078125 
Q 38.09375 11.96875 38.09375 21.296875 
Q 38.09375 29.890625 34.25 34.5 
Q 30.421875 39.109375 25.53125 39.109375 
Q 22.953125 39.109375 20.359375 37.796875 
Q 18.40625 36.8125 15.375 33.890625 
z
" id="TimesNewRomanPSMT-98"/>
       <path d="M 42 13.71875 
L 41.453125 0 
L 2 0 
L 2 1.765625 
L 31.6875 41.3125 
L 17.046875 41.3125 
Q 12.3125 41.3125 10.84375 40.703125 
Q 9.375 40.09375 8.453125 38.375 
Q 7.125 35.9375 6.9375 32.328125 
L 4.984375 32.328125 
L 5.28125 44.734375 
L 42.78125 44.734375 
L 42.78125 42.921875 
L 12.796875 3.265625 
L 29.109375 3.265625 
Q 34.234375 3.265625 36.0625 4.125 
Q 37.890625 4.984375 39.015625 7.125 
Q 39.796875 8.6875 40.328125 13.71875 
z
" id="TimesNewRomanPSMT-122"/>
       <path d="M 25 46.046875 
Q 35.15625 46.046875 41.3125 38.328125 
Q 46.53125 31.734375 46.53125 23.1875 
Q 46.53125 17.1875 43.640625 11.03125 
Q 40.765625 4.890625 35.71875 1.75 
Q 30.671875 -1.375 24.46875 -1.375 
Q 14.359375 -1.375 8.40625 6.6875 
Q 3.375 13.484375 3.375 21.921875 
Q 3.375 28.078125 6.421875 34.15625 
Q 9.46875 40.234375 14.453125 43.140625 
Q 19.4375 46.046875 25 46.046875 
z
M 23.484375 42.875 
Q 20.90625 42.875 18.28125 41.328125 
Q 15.671875 39.796875 14.0625 35.9375 
Q 12.453125 32.078125 12.453125 26.03125 
Q 12.453125 16.265625 16.328125 9.171875 
Q 20.21875 2.09375 26.5625 2.09375 
Q 31.296875 2.09375 34.375 6 
Q 37.453125 9.90625 37.453125 19.4375 
Q 37.453125 31.34375 32.328125 38.1875 
Q 28.859375 42.875 23.484375 42.875 
z
" id="TimesNewRomanPSMT-111"/>
      </defs>
      <use xlink:href="#TimesNewRomanPSMT-99"/>
      <use x="44.384766" xlink:href="#TimesNewRomanPSMT-97"/>
      <use x="88.769531" xlink:href="#TimesNewRomanPSMT-108"/>
      <use x="116.552734" xlink:href="#TimesNewRomanPSMT-105"/>
      <use x="144.335938" xlink:href="#TimesNewRomanPSMT-110"/>
      <use x="194.335938" xlink:href="#TimesNewRomanPSMT-115"/>
      <use x="233.251953" xlink:href="#TimesNewRomanPSMT-107"/>
      <use x="283.251953" xlink:href="#TimesNewRomanPSMT-105"/>
      <use x="311.035156" xlink:href="#TimesNewRomanPSMT-95"/>
      <use x="361.035156" xlink:href="#TimesNewRomanPSMT-104"/>
      <use x="411.035156" xlink:href="#TimesNewRomanPSMT-97"/>
      <use x="455.419922" xlink:href="#TimesNewRomanPSMT-114"/>
      <use x="488.720703" xlink:href="#TimesNewRomanPSMT-97"/>
      <use x="533.105469" xlink:href="#TimesNewRomanPSMT-98"/>
      <use x="583.105469" xlink:href="#TimesNewRomanPSMT-97"/>
      <use x="627.490234" xlink:href="#TimesNewRomanPSMT-115"/>
      <use x="666.40625" xlink:href="#TimesNewRomanPSMT-122"/>
      <use x="710.791016" xlink:href="#TimesNewRomanPSMT-95"/>
      <use x="760.791016" xlink:href="#TimesNewRomanPSMT-115"/>
      <use x="799.707031" xlink:href="#TimesNewRomanPSMT-99"/>
      <use x="844.091797" xlink:href="#TimesNewRomanPSMT-111"/>
      <use x="894.091797" xlink:href="#TimesNewRomanPSMT-114"/>
      <use x="927.392578" xlink:href="#TimesNewRomanPSMT-101"/>
     </g>
    </g>
   </g>
   <g id="line2d_106">
    <path clip-path="url(#pe8d5f0f371)" d="M 54.024006 16.2 
L 96.296733 124.193117 
L 138.56946 186.543316 
L 180.842187 206.541732 
L 223.114915 234.06881 
L 265.387642 236.990659 
L 307.660369 256.941235 
" style="fill:none;stroke:#d62728;stroke-dasharray:4.44,1.92;stroke-dashoffset:0;stroke-width:1.2;"/>
    <defs>
     <path d="M 0 4 
C 1.060812 4 2.078319 3.578535 2.828427 2.828427 
C 3.578535 2.078319 4 1.060812 4 0 
C 4 -1.060812 3.578535 -2.078319 2.828427 -2.828427 
C 2.078319 -3.578535 1.060812 -4 0 -4 
C -1.060812 -4 -2.078319 -3.578535 -2.828427 -2.828427 
C -3.578535 -2.078319 -4 -1.060812 -4 0 
C -4 1.060812 -3.578535 2.078319 -2.828427 2.828427 
C -2.078319 3.578535 -1.060812 4 0 4 
z
" id="m3a7b82883f" style="stroke:#d62728;"/>
    </defs>
    <g clip-path="url(#pe8d5f0f371)">
     <use style="fill:#d62728;stroke:#d62728;" x="54.024006" xlink:href="#m3a7b82883f" y="16.2"/>
     <use style="fill:#d62728;stroke:#d62728;" x="96.296733" xlink:href="#m3a7b82883f" y="124.193117"/>
     <use style="fill:#d62728;stroke:#d62728;" x="138.56946" xlink:href="#m3a7b82883f" y="186.543316"/>
     <use style="fill:#d62728;stroke:#d62728;" x="180.842187" xlink:href="#m3a7b82883f" y="206.541732"/>
     <use style="fill:#d62728;stroke:#d62728;" x="223.114915" xlink:href="#m3a7b82883f" y="234.06881"/>
     <use style="fill:#d62728;stroke:#d62728;" x="265.387642" xlink:href="#m3a7b82883f" y="236.990659"/>
     <use style="fill:#d62728;stroke:#d62728;" x="307.660369" xlink:href="#m3a7b82883f" y="256.941235"/>
    </g>
   </g>
   <g id="line2d_107">
    <path clip-path="url(#pe8d5f0f371)" d="M 54.024006 91.940824 
L 96.296733 139.769996 
L 138.56946 216.941395 
L 180.842187 228.256262 
L 223.114915 248.105735 
L 265.387642 268.2 
L 307.660369 267.167538 
" style="fill:none;stroke:#000000;stroke-dasharray:4.44,1.92;stroke-dashoffset:0;stroke-width:1.2;"/>
    <defs>
     <path d="M 0 4 
C 1.060812 4 2.078319 3.578535 2.828427 2.828427 
C 3.578535 2.078319 4 1.060812 4 0 
C 4 -1.060812 3.578535 -2.078319 2.828427 -2.828427 
C 2.078319 -3.578535 1.060812 -4 0 -4 
C -1.060812 -4 -2.078319 -3.578535 -2.828427 -2.828427 
C -3.578535 -2.078319 -4 -1.060812 -4 0 
C -4 1.060812 -3.578535 2.078319 -2.828427 2.828427 
C -2.078319 3.578535 -1.060812 4 0 4 
z
" id="m9a88c59d45" style="stroke:#000000;"/>
    </defs>
    <g clip-path="url(#pe8d5f0f371)">
     <use style="stroke:#000000;" x="54.024006" xlink:href="#m9a88c59d45" y="91.940824"/>
     <use style="stroke:#000000;" x="96.296733" xlink:href="#m9a88c59d45" y="139.769996"/>
     <use style="stroke:#000000;" x="138.56946" xlink:href="#m9a88c59d45" y="216.941395"/>
     <use style="stroke:#000000;" x="180.842187" xlink:href="#m9a88c59d45" y="228.256262"/>
     <use style="stroke:#000000;" x="223.114915" xlink:href="#m9a88c59d45" y="248.105735"/>
     <use style="stroke:#000000;" x="265.387642" xlink:href="#m9a88c59d45" y="268.2"/>
     <use style="stroke:#000000;" x="307.660369" xlink:href="#m9a88c59d45" y="267.167538"/>
    </g>
   </g>
   <g id="patch_3">
    <path d="M 41.342188 280.8 
L 41.342188 3.6 
" style="fill:none;stroke:#000000;stroke-linecap:square;stroke-linejoin:miter;"/>
   </g>
   <g id="patch_4">
    <path d="M 320.342188 280.8 
L 320.342188 3.6 
" style="fill:none;stroke:#000000;stroke-linecap:square;stroke-linejoin:miter;"/>
   </g>
   <g id="patch_5">
    <path d="M 41.342188 280.8 
L 320.342187 280.8 
" style="fill:none;stroke:#000000;stroke-linecap:square;stroke-linejoin:miter;"/>
   </g>
   <g id="patch_6">
    <path d="M 41.342188 3.6 
L 320.342187 3.6 
" style="fill:none;stroke:#000000;stroke-linecap:square;stroke-linejoin:miter;"/>
   </g>
   <g id="legend_1">
    <g id="patch_7">
     <path d="M 172.883594 50.785938 
L 311.242188 50.785938 
Q 313.842188 50.785938 313.842188 48.185938 
L 313.842188 12.7 
Q 313.842188 10.1 311.242188 10.1 
L 172.883594 10.1 
Q 170.283594 10.1 170.283594 12.7 
L 170.283594 48.185938 
Q 170.283594 50.785938 172.883594 50.785938 
z
" style="fill:#ffffff;stroke:#cccccc;stroke-linejoin:miter;"/>
    </g>
    <g id="line2d_108">
     <path d="M 175.483594 19.85 
L 201.483594 19.85 
" style="fill:none;stroke:#d62728;stroke-dasharray:4.44,1.92;stroke-dashoffset:0;stroke-width:1.2;"/>
    </g>
    <g id="line2d_109">
     <g>
      <use style="fill:#d62728;stroke:#d62728;" x="188.483594" xlink:href="#m3a7b82883f" y="19.85"/>
     </g>
    </g>
    <g id="text_14">
     <!-- K-Means++ -->
     <g transform="translate(211.883594 24.4)scale(0.13 -0.13)">
      <defs>
       <path d="M 29.890625 36.71875 
L 54.296875 12.453125 
Q 60.296875 6.453125 64.546875 4.265625 
Q 68.796875 2.09375 73.046875 1.8125 
L 73.046875 0 
L 41.546875 0 
L 41.546875 1.8125 
Q 44.390625 1.8125 45.625 2.765625 
Q 46.875 3.71875 46.875 4.890625 
Q 46.875 6.0625 46.40625 6.984375 
Q 45.953125 7.90625 43.359375 10.453125 
L 20.515625 33.0625 
L 20.515625 11.71875 
Q 20.515625 6.6875 21.140625 5.078125 
Q 21.625 3.859375 23.1875 2.984375 
Q 25.296875 1.8125 27.640625 1.8125 
L 29.890625 1.8125 
L 29.890625 0 
L 1.65625 0 
L 1.65625 1.8125 
L 4 1.8125 
Q 8.109375 1.8125 9.96875 4.203125 
Q 11.140625 5.765625 11.140625 11.71875 
L 11.140625 54.5 
Q 11.140625 59.515625 10.5 61.1875 
Q 10.015625 62.359375 8.5 63.234375 
Q 6.34375 64.40625 4 64.40625 
L 1.65625 64.40625 
L 1.65625 66.21875 
L 29.890625 66.21875 
L 29.890625 64.40625 
L 27.640625 64.40625 
Q 25.34375 64.40625 23.1875 63.28125 
Q 21.6875 62.5 21.09375 60.9375 
Q 20.515625 59.375 20.515625 54.5 
L 20.515625 34.234375 
Q 21.484375 35.15625 27.203125 40.4375 
Q 41.703125 53.71875 44.734375 58.15625 
Q 46.046875 60.109375 46.046875 61.578125 
Q 46.046875 62.703125 45.015625 63.546875 
Q 44 64.40625 41.546875 64.40625 
L 40.046875 64.40625 
L 40.046875 66.21875 
L 64.359375 66.21875 
L 64.359375 64.40625 
Q 62.203125 64.359375 60.4375 63.8125 
Q 58.6875 63.28125 56.140625 61.734375 
Q 53.609375 60.203125 49.90625 56.78125 
Q 48.828125 55.8125 39.984375 46.78125 
z
" id="TimesNewRomanPSMT-75"/>
       <path d="M 4.046875 26.125 
L 29.296875 26.125 
L 29.296875 18.75 
L 4.046875 18.75 
z
" id="TimesNewRomanPSMT-45"/>
       <path d="M 40.921875 0 
L 15.328125 55.71875 
L 15.328125 11.46875 
Q 15.328125 5.375 16.65625 3.859375 
Q 18.453125 1.8125 22.359375 1.8125 
L 24.703125 1.8125 
L 24.703125 0 
L 1.65625 0 
L 1.65625 1.8125 
L 4 1.8125 
Q 8.203125 1.8125 9.96875 4.34375 
Q 11.03125 5.90625 11.03125 11.46875 
L 11.03125 54.734375 
Q 11.03125 59.125 10.0625 61.078125 
Q 9.375 62.5 7.546875 63.453125 
Q 5.71875 64.40625 1.65625 64.40625 
L 1.65625 66.21875 
L 20.40625 66.21875 
L 44.4375 14.40625 
L 68.0625 66.21875 
L 86.8125 66.21875 
L 86.8125 64.40625 
L 84.515625 64.40625 
Q 80.28125 64.40625 78.515625 61.859375 
Q 77.4375 60.296875 77.4375 54.734375 
L 77.4375 11.46875 
Q 77.4375 5.375 78.8125 3.859375 
Q 80.609375 1.8125 84.515625 1.8125 
L 86.8125 1.8125 
L 86.8125 0 
L 58.6875 0 
L 58.6875 1.8125 
L 61.03125 1.8125 
Q 65.28125 1.8125 67 4.34375 
Q 68.0625 5.90625 68.0625 11.46875 
L 68.0625 55.71875 
L 42.53125 0 
z
" id="TimesNewRomanPSMT-77"/>
       <path d="M 26.125 6.890625 
L 26.125 31.25 
L 1.8125 31.25 
L 1.8125 35.25 
L 26.125 35.25 
L 26.125 59.515625 
L 30.03125 59.515625 
L 30.03125 35.25 
L 54.4375 35.25 
L 54.4375 31.25 
L 30.03125 31.25 
L 30.03125 6.890625 
z
" id="TimesNewRomanPSMT-43"/>
      </defs>
      <use xlink:href="#TimesNewRomanPSMT-75"/>
      <use x="72.216797" xlink:href="#TimesNewRomanPSMT-45"/>
      <use x="105.517578" xlink:href="#TimesNewRomanPSMT-77"/>
      <use x="194.433594" xlink:href="#TimesNewRomanPSMT-101"/>
      <use x="238.818359" xlink:href="#TimesNewRomanPSMT-97"/>
      <use x="283.203125" xlink:href="#TimesNewRomanPSMT-110"/>
      <use x="333.203125" xlink:href="#TimesNewRomanPSMT-115"/>
      <use x="372.119141" xlink:href="#TimesNewRomanPSMT-43"/>
      <use x="428.515625" xlink:href="#TimesNewRomanPSMT-43"/>
     </g>
    </g>
    <g id="line2d_110">
     <path d="M 175.483594 38.230781 
L 201.483594 38.230781 
" style="fill:none;stroke:#000000;stroke-dasharray:4.44,1.92;stroke-dashoffset:0;stroke-width:1.2;"/>
    </g>
    <g id="line2d_111">
     <g>
      <use style="stroke:#000000;" x="188.483594" xlink:href="#m9a88c59d45" y="38.230781"/>
     </g>
    </g>
    <g id="text_15">
     <!-- SpectralClustering -->
     <g transform="translate(211.883594 42.780781)scale(0.13 -0.13)">
      <defs>
       <path d="M 45.84375 67.71875 
L 45.84375 44.828125 
L 44.046875 44.828125 
Q 43.171875 51.421875 40.890625 55.328125 
Q 38.625 59.234375 34.421875 61.515625 
Q 30.21875 63.8125 25.734375 63.8125 
Q 20.65625 63.8125 17.328125 60.71875 
Q 14.015625 57.625 14.015625 53.65625 
Q 14.015625 50.640625 16.109375 48.140625 
Q 19.140625 44.484375 30.515625 38.375 
Q 39.796875 33.40625 43.1875 30.734375 
Q 46.578125 28.078125 48.40625 24.453125 
Q 50.25 20.84375 50.25 16.890625 
Q 50.25 9.375 44.40625 3.921875 
Q 38.578125 -1.515625 29.390625 -1.515625 
Q 26.515625 -1.515625 23.96875 -1.078125 
Q 22.46875 -0.828125 17.703125 0.703125 
Q 12.9375 2.25 11.671875 2.25 
Q 10.453125 2.25 9.734375 1.515625 
Q 9.03125 0.78125 8.6875 -1.515625 
L 6.890625 -1.515625 
L 6.890625 21.1875 
L 8.6875 21.1875 
Q 9.96875 14.0625 12.109375 10.515625 
Q 14.265625 6.984375 18.671875 4.640625 
Q 23.09375 2.296875 28.375 2.296875 
Q 34.46875 2.296875 38 5.515625 
Q 41.546875 8.734375 41.546875 13.140625 
Q 41.546875 15.578125 40.203125 18.0625 
Q 38.875 20.5625 36.03125 22.703125 
Q 34.125 24.171875 25.625 28.921875 
Q 17.140625 33.6875 13.546875 36.515625 
Q 9.96875 39.359375 8.109375 42.765625 
Q 6.25 46.1875 6.25 50.296875 
Q 6.25 57.421875 11.71875 62.5625 
Q 17.1875 67.71875 25.640625 67.71875 
Q 30.90625 67.71875 36.8125 65.140625 
Q 39.546875 63.921875 40.671875 63.921875 
Q 41.9375 63.921875 42.75 64.671875 
Q 43.5625 65.4375 44.046875 67.71875 
z
" id="TimesNewRomanPSMT-83"/>
       <path d="M -0.09375 40.28125 
L 13.671875 45.84375 
L 15.53125 45.84375 
L 15.53125 35.40625 
Q 19 41.3125 22.484375 43.671875 
Q 25.984375 46.046875 29.828125 46.046875 
Q 36.578125 46.046875 41.0625 40.765625 
Q 46.578125 34.328125 46.578125 23.96875 
Q 46.578125 12.40625 39.9375 4.828125 
Q 34.46875 -1.375 26.171875 -1.375 
Q 22.5625 -1.375 19.921875 -0.34375 
Q 17.96875 0.390625 15.53125 2.59375 
L 15.53125 -11.03125 
Q 15.53125 -15.625 16.09375 -16.859375 
Q 16.65625 -18.109375 18.046875 -18.84375 
Q 19.4375 -19.578125 23.09375 -19.578125 
L 23.09375 -21.390625 
L -0.34375 -21.390625 
L -0.34375 -19.578125 
L 0.875 -19.578125 
Q 3.5625 -19.625 5.46875 -18.5625 
Q 6.390625 -18.015625 6.90625 -16.8125 
Q 7.421875 -15.625 7.421875 -10.75 
L 7.421875 31.546875 
Q 7.421875 35.890625 7.03125 37.0625 
Q 6.640625 38.234375 5.78125 38.8125 
Q 4.9375 39.40625 3.46875 39.40625 
Q 2.296875 39.40625 0.484375 38.71875 
z
M 15.53125 32.515625 
L 15.53125 15.828125 
Q 15.53125 10.40625 15.96875 8.6875 
Q 16.65625 5.859375 19.3125 3.703125 
Q 21.96875 1.5625 26.03125 1.5625 
Q 30.90625 1.5625 33.9375 5.375 
Q 37.890625 10.359375 37.890625 19.390625 
Q 37.890625 29.640625 33.40625 35.15625 
Q 30.28125 38.96875 25.984375 38.96875 
Q 23.640625 38.96875 21.34375 37.796875 
Q 19.578125 36.921875 15.53125 32.515625 
z
" id="TimesNewRomanPSMT-112"/>
       <path d="M 60.203125 67.71875 
L 61.71875 45.21875 
L 60.203125 45.21875 
Q 57.171875 55.328125 51.5625 59.765625 
Q 45.953125 64.203125 38.09375 64.203125 
Q 31.5 64.203125 26.171875 60.859375 
Q 20.84375 57.515625 17.796875 50.1875 
Q 14.75 42.875 14.75 31.984375 
Q 14.75 23 17.625 16.40625 
Q 20.515625 9.8125 26.296875 6.296875 
Q 32.078125 2.78125 39.5 2.78125 
Q 45.953125 2.78125 50.875 5.53125 
Q 55.8125 8.296875 61.71875 16.5 
L 63.234375 15.53125 
Q 58.25 6.6875 51.609375 2.578125 
Q 44.96875 -1.515625 35.84375 -1.515625 
Q 19.390625 -1.515625 10.359375 10.6875 
Q 3.609375 19.78125 3.609375 32.078125 
Q 3.609375 42 8.046875 50.296875 
Q 12.5 58.59375 20.28125 63.15625 
Q 28.078125 67.71875 37.3125 67.71875 
Q 44.484375 67.71875 51.46875 64.203125 
Q 53.515625 63.140625 54.390625 63.140625 
Q 55.71875 63.140625 56.6875 64.0625 
Q 57.953125 65.375 58.5 67.71875 
z
" id="TimesNewRomanPSMT-67"/>
       <path d="M 15.09375 16.3125 
Q 10.984375 18.3125 8.78125 21.890625 
Q 6.59375 25.484375 6.59375 29.828125 
Q 6.59375 36.46875 11.59375 41.25 
Q 16.609375 46.046875 24.421875 46.046875 
Q 30.8125 46.046875 35.5 42.921875 
L 44.96875 42.921875 
Q 47.078125 42.921875 47.40625 42.796875 
Q 47.75 42.671875 47.90625 42.390625 
Q 48.1875 41.9375 48.1875 40.828125 
Q 48.1875 39.546875 47.953125 39.0625 
Q 47.796875 38.8125 47.4375 38.671875 
Q 47.078125 38.53125 44.96875 38.53125 
L 39.15625 38.53125 
Q 41.890625 35.015625 41.890625 29.546875 
Q 41.890625 23.296875 37.109375 18.84375 
Q 32.328125 14.40625 24.265625 14.40625 
Q 20.953125 14.40625 17.484375 15.375 
Q 15.328125 13.53125 14.5625 12.140625 
Q 13.8125 10.75 13.8125 9.765625 
Q 13.8125 8.9375 14.625 8.15625 
Q 15.4375 7.375 17.78125 7.03125 
Q 19.140625 6.84375 24.609375 6.6875 
Q 34.671875 6.453125 37.640625 6 
Q 42.1875 5.375 44.890625 2.640625 
Q 47.609375 -0.09375 47.609375 -4.109375 
Q 47.609375 -9.625 42.4375 -14.453125 
Q 34.8125 -21.578125 22.5625 -21.578125 
Q 13.140625 -21.578125 6.640625 -17.328125 
Q 2.984375 -14.890625 2.984375 -12.25 
Q 2.984375 -11.078125 3.515625 -9.90625 
Q 4.34375 -8.109375 6.9375 -4.890625 
Q 7.28125 -4.4375 11.921875 0.390625 
Q 9.375 1.90625 8.328125 3.09375 
Q 7.28125 4.296875 7.28125 5.8125 
Q 7.28125 7.515625 8.671875 9.8125 
Q 10.0625 12.109375 15.09375 16.3125 
z
M 23.578125 43.703125 
Q 19.96875 43.703125 17.53125 40.8125 
Q 15.09375 37.9375 15.09375 31.984375 
Q 15.09375 24.265625 18.40625 20.015625 
Q 20.953125 16.796875 24.859375 16.796875 
Q 28.5625 16.796875 30.953125 19.578125 
Q 33.34375 22.359375 33.34375 28.328125 
Q 33.34375 36.078125 29.984375 40.484375 
Q 27.484375 43.703125 23.578125 43.703125 
z
M 14.59375 0 
Q 12.3125 -2.484375 11.140625 -4.625 
Q 9.96875 -6.78125 9.96875 -8.59375 
Q 9.96875 -10.9375 12.796875 -12.703125 
Q 17.671875 -15.71875 26.90625 -15.71875 
Q 35.6875 -15.71875 39.859375 -12.609375 
Q 44.046875 -9.515625 44.046875 -6 
Q 44.046875 -3.46875 41.546875 -2.390625 
Q 39.015625 -1.3125 31.5 -1.125 
Q 20.515625 -0.828125 14.59375 0 
z
" id="TimesNewRomanPSMT-103"/>
      </defs>
      <use xlink:href="#TimesNewRomanPSMT-83"/>
      <use x="55.615234" xlink:href="#TimesNewRomanPSMT-112"/>
      <use x="105.615234" xlink:href="#TimesNewRomanPSMT-101"/>
      <use x="150" xlink:href="#TimesNewRomanPSMT-99"/>
      <use x="194.384766" xlink:href="#TimesNewRomanPSMT-116"/>
      <use x="222.167969" xlink:href="#TimesNewRomanPSMT-114"/>
      <use x="255.46875" xlink:href="#TimesNewRomanPSMT-97"/>
      <use x="299.853516" xlink:href="#TimesNewRomanPSMT-108"/>
      <use x="327.636719" xlink:href="#TimesNewRomanPSMT-67"/>
      <use x="394.335938" xlink:href="#TimesNewRomanPSMT-108"/>
      <use x="422.119141" xlink:href="#TimesNewRomanPSMT-117"/>
      <use x="472.119141" xlink:href="#TimesNewRomanPSMT-115"/>
      <use x="511.035156" xlink:href="#TimesNewRomanPSMT-116"/>
      <use x="538.818359" xlink:href="#TimesNewRomanPSMT-101"/>
      <use x="583.203125" xlink:href="#TimesNewRomanPSMT-114"/>
      <use x="616.503906" xlink:href="#TimesNewRomanPSMT-105"/>
      <use x="644.287109" xlink:href="#TimesNewRomanPSMT-110"/>
      <use x="694.287109" xlink:href="#TimesNewRomanPSMT-103"/>
     </g>
    </g>
   </g>
  </g>
  <g id="axes_2">
   <g id="patch_8">
    <path d="M 376.142187 280.8 
L 655.142187 280.8 
L 655.142187 3.6 
L 376.142187 3.6 
z
" style="fill:#ffffff;"/>
   </g>
   <g id="matplotlib.axis_3">
    <g id="xtick_14">
     <g id="line2d_112">
      <path clip-path="url(#p26def485c4)" d="M 388.824006 280.8 
L 388.824006 3.6 
" style="fill:none;stroke:#000000;stroke-dasharray:1.85,0.8;stroke-dashoffset:0;stroke-opacity:0.5;stroke-width:0.5;"/>
     </g>
     <g id="line2d_113">
      <g>
       <use style="stroke:#000000;stroke-width:0.5;" x="388.824006" xlink:href="#m3b7f38bbf0" y="280.8"/>
      </g>
     </g>
     <g id="line2d_114">
      <g>
       <use style="stroke:#000000;stroke-width:0.5;" x="388.824006" xlink:href="#m064e21138e" y="3.6"/>
      </g>
     </g>
     <g id="text_16">
      <!-- 2 -->
      <g transform="translate(385.324006 294.02125)scale(0.14 -0.14)">
       <use xlink:href="#TimesNewRomanPSMT-50"/>
      </g>
     </g>
    </g>
    <g id="xtick_15">
     <g id="line2d_115">
      <path clip-path="url(#p26def485c4)" d="M 473.36946 280.8 
L 473.36946 3.6 
" style="fill:none;stroke:#000000;stroke-dasharray:1.85,0.8;stroke-dashoffset:0;stroke-opacity:0.5;stroke-width:0.5;"/>
     </g>
     <g id="line2d_116">
      <g>
       <use style="stroke:#000000;stroke-width:0.5;" x="473.36946" xlink:href="#m3b7f38bbf0" y="280.8"/>
      </g>
     </g>
     <g id="line2d_117">
      <g>
       <use style="stroke:#000000;stroke-width:0.5;" x="473.36946" xlink:href="#m064e21138e" y="3.6"/>
      </g>
     </g>
     <g id="text_17">
      <!-- 4 -->
      <g transform="translate(469.86946 294.02125)scale(0.14 -0.14)">
       <use xlink:href="#TimesNewRomanPSMT-52"/>
      </g>
     </g>
    </g>
    <g id="xtick_16">
     <g id="line2d_118">
      <path clip-path="url(#p26def485c4)" d="M 557.914915 280.8 
L 557.914915 3.6 
" style="fill:none;stroke:#000000;stroke-dasharray:1.85,0.8;stroke-dashoffset:0;stroke-opacity:0.5;stroke-width:0.5;"/>
     </g>
     <g id="line2d_119">
      <g>
       <use style="stroke:#000000;stroke-width:0.5;" x="557.914915" xlink:href="#m3b7f38bbf0" y="280.8"/>
      </g>
     </g>
     <g id="line2d_120">
      <g>
       <use style="stroke:#000000;stroke-width:0.5;" x="557.914915" xlink:href="#m064e21138e" y="3.6"/>
      </g>
     </g>
     <g id="text_18">
      <!-- 6 -->
      <g transform="translate(554.414915 294.02125)scale(0.14 -0.14)">
       <use xlink:href="#TimesNewRomanPSMT-54"/>
      </g>
     </g>
    </g>
    <g id="xtick_17">
     <g id="line2d_121">
      <path clip-path="url(#p26def485c4)" d="M 642.460369 280.8 
L 642.460369 3.6 
" style="fill:none;stroke:#000000;stroke-dasharray:1.85,0.8;stroke-dashoffset:0;stroke-opacity:0.5;stroke-width:0.5;"/>
     </g>
     <g id="line2d_122">
      <g>
       <use style="stroke:#000000;stroke-width:0.5;" x="642.460369" xlink:href="#m3b7f38bbf0" y="280.8"/>
      </g>
     </g>
     <g id="line2d_123">
      <g>
       <use style="stroke:#000000;stroke-width:0.5;" x="642.460369" xlink:href="#m064e21138e" y="3.6"/>
      </g>
     </g>
     <g id="text_19">
      <!-- 8 -->
      <g transform="translate(638.960369 294.02125)scale(0.14 -0.14)">
       <use xlink:href="#TimesNewRomanPSMT-56"/>
      </g>
     </g>
    </g>
    <g id="xtick_18">
     <g id="line2d_124">
      <g>
       <use style="stroke:#000000;stroke-width:0.5;" x="409.960369" xlink:href="#mb7f5d0949e" y="280.8"/>
      </g>
     </g>
     <g id="line2d_125">
      <g>
       <use style="stroke:#000000;stroke-width:0.5;" x="409.960369" xlink:href="#m5cb45ce83a" y="3.6"/>
      </g>
     </g>
    </g>
    <g id="xtick_19">
     <g id="line2d_126">
      <g>
       <use style="stroke:#000000;stroke-width:0.5;" x="431.096733" xlink:href="#mb7f5d0949e" y="280.8"/>
      </g>
     </g>
     <g id="line2d_127">
      <g>
       <use style="stroke:#000000;stroke-width:0.5;" x="431.096733" xlink:href="#m5cb45ce83a" y="3.6"/>
      </g>
     </g>
    </g>
    <g id="xtick_20">
     <g id="line2d_128">
      <g>
       <use style="stroke:#000000;stroke-width:0.5;" x="452.233097" xlink:href="#mb7f5d0949e" y="280.8"/>
      </g>
     </g>
     <g id="line2d_129">
      <g>
       <use style="stroke:#000000;stroke-width:0.5;" x="452.233097" xlink:href="#m5cb45ce83a" y="3.6"/>
      </g>
     </g>
    </g>
    <g id="xtick_21">
     <g id="line2d_130">
      <g>
       <use style="stroke:#000000;stroke-width:0.5;" x="494.505824" xlink:href="#mb7f5d0949e" y="280.8"/>
      </g>
     </g>
     <g id="line2d_131">
      <g>
       <use style="stroke:#000000;stroke-width:0.5;" x="494.505824" xlink:href="#m5cb45ce83a" y="3.6"/>
      </g>
     </g>
    </g>
    <g id="xtick_22">
     <g id="line2d_132">
      <g>
       <use style="stroke:#000000;stroke-width:0.5;" x="515.642187" xlink:href="#mb7f5d0949e" y="280.8"/>
      </g>
     </g>
     <g id="line2d_133">
      <g>
       <use style="stroke:#000000;stroke-width:0.5;" x="515.642187" xlink:href="#m5cb45ce83a" y="3.6"/>
      </g>
     </g>
    </g>
    <g id="xtick_23">
     <g id="line2d_134">
      <g>
       <use style="stroke:#000000;stroke-width:0.5;" x="536.778551" xlink:href="#mb7f5d0949e" y="280.8"/>
      </g>
     </g>
     <g id="line2d_135">
      <g>
       <use style="stroke:#000000;stroke-width:0.5;" x="536.778551" xlink:href="#m5cb45ce83a" y="3.6"/>
      </g>
     </g>
    </g>
    <g id="xtick_24">
     <g id="line2d_136">
      <g>
       <use style="stroke:#000000;stroke-width:0.5;" x="579.051278" xlink:href="#mb7f5d0949e" y="280.8"/>
      </g>
     </g>
     <g id="line2d_137">
      <g>
       <use style="stroke:#000000;stroke-width:0.5;" x="579.051278" xlink:href="#m5cb45ce83a" y="3.6"/>
      </g>
     </g>
    </g>
    <g id="xtick_25">
     <g id="line2d_138">
      <g>
       <use style="stroke:#000000;stroke-width:0.5;" x="600.187642" xlink:href="#mb7f5d0949e" y="280.8"/>
      </g>
     </g>
     <g id="line2d_139">
      <g>
       <use style="stroke:#000000;stroke-width:0.5;" x="600.187642" xlink:href="#m5cb45ce83a" y="3.6"/>
      </g>
     </g>
    </g>
    <g id="xtick_26">
     <g id="line2d_140">
      <g>
       <use style="stroke:#000000;stroke-width:0.5;" x="621.324006" xlink:href="#mb7f5d0949e" y="280.8"/>
      </g>
     </g>
     <g id="line2d_141">
      <g>
       <use style="stroke:#000000;stroke-width:0.5;" x="621.324006" xlink:href="#m5cb45ce83a" y="3.6"/>
      </g>
     </g>
    </g>
    <g id="text_20">
     <!-- n_clusters -->
     <g transform="translate(487.258281 310.737188)scale(0.14 -0.14)">
      <use xlink:href="#TimesNewRomanPSMT-110"/>
      <use x="50" xlink:href="#TimesNewRomanPSMT-95"/>
      <use x="100" xlink:href="#TimesNewRomanPSMT-99"/>
      <use x="144.384766" xlink:href="#TimesNewRomanPSMT-108"/>
      <use x="172.167969" xlink:href="#TimesNewRomanPSMT-117"/>
      <use x="222.167969" xlink:href="#TimesNewRomanPSMT-115"/>
      <use x="261.083984" xlink:href="#TimesNewRomanPSMT-116"/>
      <use x="288.867188" xlink:href="#TimesNewRomanPSMT-101"/>
      <use x="333.251953" xlink:href="#TimesNewRomanPSMT-114"/>
      <use x="366.552734" xlink:href="#TimesNewRomanPSMT-115"/>
     </g>
    </g>
   </g>
   <g id="matplotlib.axis_4">
    <g id="ytick_35">
     <g id="line2d_142">
      <path clip-path="url(#p26def485c4)" d="M 376.142187 267.47194 
L 655.142187 267.47194 
" style="fill:none;stroke:#000000;stroke-dasharray:1.85,0.8;stroke-dashoffset:0;stroke-opacity:0.5;stroke-width:0.5;"/>
     </g>
     <g id="line2d_143">
      <g>
       <use style="stroke:#000000;stroke-width:0.5;" x="376.142187" xlink:href="#m3ba0049fea" y="267.47194"/>
      </g>
     </g>
     <g id="line2d_144">
      <g>
       <use style="stroke:#000000;stroke-width:0.5;" x="655.142187" xlink:href="#mad3f982dc2" y="267.47194"/>
      </g>
     </g>
     <g id="text_21">
      <!-- 0.09 -->
      <g transform="translate(348.142187 272.332565)scale(0.14 -0.14)">
       <defs>
        <path d="M 5.28125 -1.375 
L 5.28125 0.4375 
Q 11.625 0.53125 17.09375 3.390625 
Q 22.5625 6.25 27.65625 13.375 
Q 32.765625 20.515625 34.765625 29.046875 
Q 27.09375 24.125 20.90625 24.125 
Q 13.921875 24.125 8.9375 29.515625 
Q 3.953125 34.90625 3.953125 43.84375 
Q 3.953125 52.546875 8.9375 59.328125 
Q 14.9375 67.578125 24.609375 67.578125 
Q 32.765625 67.578125 38.578125 60.84375 
Q 45.703125 52.484375 45.703125 40.234375 
Q 45.703125 29.203125 40.28125 19.65625 
Q 34.859375 10.109375 25.203125 3.8125 
Q 17.328125 -1.375 8.0625 -1.375 
z
M 35.546875 32.671875 
Q 36.421875 39.015625 36.421875 42.828125 
Q 36.421875 47.5625 34.8125 53.046875 
Q 33.203125 58.546875 30.25 61.46875 
Q 27.296875 64.40625 23.53125 64.40625 
Q 19.1875 64.40625 15.90625 60.5 
Q 12.640625 56.59375 12.640625 48.875 
Q 12.640625 38.578125 17 32.765625 
Q 20.171875 28.5625 24.8125 28.5625 
Q 27.046875 28.5625 30.125 29.640625 
Q 33.203125 30.71875 35.546875 32.671875 
z
" id="TimesNewRomanPSMT-57"/>
       </defs>
       <use xlink:href="#TimesNewRomanPSMT-48"/>
       <use x="50" xlink:href="#TimesNewRomanPSMT-46"/>
       <use x="75" xlink:href="#TimesNewRomanPSMT-48"/>
       <use x="125" xlink:href="#TimesNewRomanPSMT-57"/>
      </g>
     </g>
    </g>
    <g id="ytick_36">
     <g id="line2d_145">
      <path clip-path="url(#p26def485c4)" d="M 376.142187 216.747324 
L 655.142187 216.747324 
" style="fill:none;stroke:#000000;stroke-dasharray:1.85,0.8;stroke-dashoffset:0;stroke-opacity:0.5;stroke-width:0.5;"/>
     </g>
     <g id="line2d_146">
      <g>
       <use style="stroke:#000000;stroke-width:0.5;" x="376.142187" xlink:href="#m3ba0049fea" y="216.747324"/>
      </g>
     </g>
     <g id="line2d_147">
      <g>
       <use style="stroke:#000000;stroke-width:0.5;" x="655.142187" xlink:href="#mad3f982dc2" y="216.747324"/>
      </g>
     </g>
     <g id="text_22">
      <!-- 0.10 -->
      <g transform="translate(348.142187 221.607949)scale(0.14 -0.14)">
       <defs>
        <path d="M 11.71875 59.71875 
L 27.828125 67.578125 
L 29.4375 67.578125 
L 29.4375 11.671875 
Q 29.4375 6.109375 29.90625 4.734375 
Q 30.375 3.375 31.828125 2.640625 
Q 33.296875 1.90625 37.796875 1.8125 
L 37.796875 0 
L 12.890625 0 
L 12.890625 1.8125 
Q 17.578125 1.90625 18.9375 2.609375 
Q 20.3125 3.328125 20.84375 4.515625 
Q 21.390625 5.71875 21.390625 11.671875 
L 21.390625 47.40625 
Q 21.390625 54.640625 20.90625 56.6875 
Q 20.5625 58.25 19.65625 58.984375 
Q 18.75 59.71875 17.484375 59.71875 
Q 15.671875 59.71875 12.453125 58.203125 
z
" id="TimesNewRomanPSMT-49"/>
       </defs>
       <use xlink:href="#TimesNewRomanPSMT-48"/>
       <use x="50" xlink:href="#TimesNewRomanPSMT-46"/>
       <use x="75" xlink:href="#TimesNewRomanPSMT-49"/>
       <use x="125" xlink:href="#TimesNewRomanPSMT-48"/>
      </g>
     </g>
    </g>
    <g id="ytick_37">
     <g id="line2d_148">
      <path clip-path="url(#p26def485c4)" d="M 376.142187 166.022709 
L 655.142187 166.022709 
" style="fill:none;stroke:#000000;stroke-dasharray:1.85,0.8;stroke-dashoffset:0;stroke-opacity:0.5;stroke-width:0.5;"/>
     </g>
     <g id="line2d_149">
      <g>
       <use style="stroke:#000000;stroke-width:0.5;" x="376.142187" xlink:href="#m3ba0049fea" y="166.022709"/>
      </g>
     </g>
     <g id="line2d_150">
      <g>
       <use style="stroke:#000000;stroke-width:0.5;" x="655.142187" xlink:href="#mad3f982dc2" y="166.022709"/>
      </g>
     </g>
     <g id="text_23">
      <!-- 0.11 -->
      <g transform="translate(348.667187 170.883334)scale(0.14 -0.14)">
       <use xlink:href="#TimesNewRomanPSMT-48"/>
       <use x="50" xlink:href="#TimesNewRomanPSMT-46"/>
       <use x="75" xlink:href="#TimesNewRomanPSMT-49"/>
       <use x="121.25" xlink:href="#TimesNewRomanPSMT-49"/>
      </g>
     </g>
    </g>
    <g id="ytick_38">
     <g id="line2d_151">
      <path clip-path="url(#p26def485c4)" d="M 376.142187 115.298093 
L 655.142187 115.298093 
" style="fill:none;stroke:#000000;stroke-dasharray:1.85,0.8;stroke-dashoffset:0;stroke-opacity:0.5;stroke-width:0.5;"/>
     </g>
     <g id="line2d_152">
      <g>
       <use style="stroke:#000000;stroke-width:0.5;" x="376.142187" xlink:href="#m3ba0049fea" y="115.298093"/>
      </g>
     </g>
     <g id="line2d_153">
      <g>
       <use style="stroke:#000000;stroke-width:0.5;" x="655.142187" xlink:href="#mad3f982dc2" y="115.298093"/>
      </g>
     </g>
     <g id="text_24">
      <!-- 0.12 -->
      <g transform="translate(348.142187 120.158718)scale(0.14 -0.14)">
       <use xlink:href="#TimesNewRomanPSMT-48"/>
       <use x="50" xlink:href="#TimesNewRomanPSMT-46"/>
       <use x="75" xlink:href="#TimesNewRomanPSMT-49"/>
       <use x="125" xlink:href="#TimesNewRomanPSMT-50"/>
      </g>
     </g>
    </g>
    <g id="ytick_39">
     <g id="line2d_154">
      <path clip-path="url(#p26def485c4)" d="M 376.142187 64.573477 
L 655.142187 64.573477 
" style="fill:none;stroke:#000000;stroke-dasharray:1.85,0.8;stroke-dashoffset:0;stroke-opacity:0.5;stroke-width:0.5;"/>
     </g>
     <g id="line2d_155">
      <g>
       <use style="stroke:#000000;stroke-width:0.5;" x="376.142187" xlink:href="#m3ba0049fea" y="64.573477"/>
      </g>
     </g>
     <g id="line2d_156">
      <g>
       <use style="stroke:#000000;stroke-width:0.5;" x="655.142187" xlink:href="#mad3f982dc2" y="64.573477"/>
      </g>
     </g>
     <g id="text_25">
      <!-- 0.13 -->
      <g transform="translate(348.142187 69.434102)scale(0.14 -0.14)">
       <defs>
        <path d="M 5.078125 53.609375 
Q 7.90625 60.296875 12.21875 63.9375 
Q 16.546875 67.578125 23 67.578125 
Q 30.953125 67.578125 35.203125 62.40625 
Q 38.421875 58.546875 38.421875 54.15625 
Q 38.421875 46.921875 29.34375 39.203125 
Q 35.453125 36.8125 38.578125 32.375 
Q 41.703125 27.9375 41.703125 21.921875 
Q 41.703125 13.328125 36.234375 7.03125 
Q 29.109375 -1.171875 15.578125 -1.171875 
Q 8.890625 -1.171875 6.46875 0.484375 
Q 4.046875 2.15625 4.046875 4.046875 
Q 4.046875 5.46875 5.1875 6.546875 
Q 6.34375 7.625 7.953125 7.625 
Q 9.1875 7.625 10.453125 7.234375 
Q 11.28125 6.984375 14.203125 5.4375 
Q 17.140625 3.90625 18.265625 3.609375 
Q 20.0625 3.078125 22.125 3.078125 
Q 27.09375 3.078125 30.78125 6.9375 
Q 34.46875 10.796875 34.46875 16.0625 
Q 34.46875 19.921875 32.765625 23.578125 
Q 31.5 26.3125 29.984375 27.734375 
Q 27.875 29.6875 24.21875 31.265625 
Q 20.5625 32.859375 16.75 32.859375 
L 15.1875 32.859375 
L 15.1875 34.328125 
Q 19.046875 34.8125 22.921875 37.109375 
Q 26.8125 39.40625 28.5625 42.625 
Q 30.328125 45.84375 30.328125 49.703125 
Q 30.328125 54.734375 27.171875 57.828125 
Q 24.03125 60.9375 19.34375 60.9375 
Q 11.765625 60.9375 6.6875 52.828125 
z
" id="TimesNewRomanPSMT-51"/>
       </defs>
       <use xlink:href="#TimesNewRomanPSMT-48"/>
       <use x="50" xlink:href="#TimesNewRomanPSMT-46"/>
       <use x="75" xlink:href="#TimesNewRomanPSMT-49"/>
       <use x="125" xlink:href="#TimesNewRomanPSMT-51"/>
      </g>
     </g>
    </g>
    <g id="ytick_40">
     <g id="line2d_157">
      <path clip-path="url(#p26def485c4)" d="M 376.142187 13.848862 
L 655.142187 13.848862 
" style="fill:none;stroke:#000000;stroke-dasharray:1.85,0.8;stroke-dashoffset:0;stroke-opacity:0.5;stroke-width:0.5;"/>
     </g>
     <g id="line2d_158">
      <g>
       <use style="stroke:#000000;stroke-width:0.5;" x="376.142187" xlink:href="#m3ba0049fea" y="13.848862"/>
      </g>
     </g>
     <g id="line2d_159">
      <g>
       <use style="stroke:#000000;stroke-width:0.5;" x="655.142187" xlink:href="#mad3f982dc2" y="13.848862"/>
      </g>
     </g>
     <g id="text_26">
      <!-- 0.14 -->
      <g transform="translate(348.142187 18.709487)scale(0.14 -0.14)">
       <use xlink:href="#TimesNewRomanPSMT-48"/>
       <use x="50" xlink:href="#TimesNewRomanPSMT-46"/>
       <use x="75" xlink:href="#TimesNewRomanPSMT-49"/>
       <use x="125" xlink:href="#TimesNewRomanPSMT-52"/>
      </g>
     </g>
    </g>
    <g id="ytick_41">
     <g id="line2d_160">
      <g>
       <use style="stroke:#000000;stroke-width:0.5;" x="376.142187" xlink:href="#m874647d67e" y="277.616863"/>
      </g>
     </g>
     <g id="line2d_161">
      <g>
       <use style="stroke:#000000;stroke-width:0.5;" x="655.142187" xlink:href="#m06fe51321a" y="277.616863"/>
      </g>
     </g>
    </g>
    <g id="ytick_42">
     <g id="line2d_162">
      <g>
       <use style="stroke:#000000;stroke-width:0.5;" x="376.142187" xlink:href="#m874647d67e" y="257.327017"/>
      </g>
     </g>
     <g id="line2d_163">
      <g>
       <use style="stroke:#000000;stroke-width:0.5;" x="655.142187" xlink:href="#m06fe51321a" y="257.327017"/>
      </g>
     </g>
    </g>
    <g id="ytick_43">
     <g id="line2d_164">
      <g>
       <use style="stroke:#000000;stroke-width:0.5;" x="376.142187" xlink:href="#m874647d67e" y="247.182094"/>
      </g>
     </g>
     <g id="line2d_165">
      <g>
       <use style="stroke:#000000;stroke-width:0.5;" x="655.142187" xlink:href="#m06fe51321a" y="247.182094"/>
      </g>
     </g>
    </g>
    <g id="ytick_44">
     <g id="line2d_166">
      <g>
       <use style="stroke:#000000;stroke-width:0.5;" x="376.142187" xlink:href="#m874647d67e" y="237.037171"/>
      </g>
     </g>
     <g id="line2d_167">
      <g>
       <use style="stroke:#000000;stroke-width:0.5;" x="655.142187" xlink:href="#m06fe51321a" y="237.037171"/>
      </g>
     </g>
    </g>
    <g id="ytick_45">
     <g id="line2d_168">
      <g>
       <use style="stroke:#000000;stroke-width:0.5;" x="376.142187" xlink:href="#m874647d67e" y="226.892247"/>
      </g>
     </g>
     <g id="line2d_169">
      <g>
       <use style="stroke:#000000;stroke-width:0.5;" x="655.142187" xlink:href="#m06fe51321a" y="226.892247"/>
      </g>
     </g>
    </g>
    <g id="ytick_46">
     <g id="line2d_170">
      <g>
       <use style="stroke:#000000;stroke-width:0.5;" x="376.142187" xlink:href="#m874647d67e" y="206.602401"/>
      </g>
     </g>
     <g id="line2d_171">
      <g>
       <use style="stroke:#000000;stroke-width:0.5;" x="655.142187" xlink:href="#m06fe51321a" y="206.602401"/>
      </g>
     </g>
    </g>
    <g id="ytick_47">
     <g id="line2d_172">
      <g>
       <use style="stroke:#000000;stroke-width:0.5;" x="376.142187" xlink:href="#m874647d67e" y="196.457478"/>
      </g>
     </g>
     <g id="line2d_173">
      <g>
       <use style="stroke:#000000;stroke-width:0.5;" x="655.142187" xlink:href="#m06fe51321a" y="196.457478"/>
      </g>
     </g>
    </g>
    <g id="ytick_48">
     <g id="line2d_174">
      <g>
       <use style="stroke:#000000;stroke-width:0.5;" x="376.142187" xlink:href="#m874647d67e" y="186.312555"/>
      </g>
     </g>
     <g id="line2d_175">
      <g>
       <use style="stroke:#000000;stroke-width:0.5;" x="655.142187" xlink:href="#m06fe51321a" y="186.312555"/>
      </g>
     </g>
    </g>
    <g id="ytick_49">
     <g id="line2d_176">
      <g>
       <use style="stroke:#000000;stroke-width:0.5;" x="376.142187" xlink:href="#m874647d67e" y="176.167632"/>
      </g>
     </g>
     <g id="line2d_177">
      <g>
       <use style="stroke:#000000;stroke-width:0.5;" x="655.142187" xlink:href="#m06fe51321a" y="176.167632"/>
      </g>
     </g>
    </g>
    <g id="ytick_50">
     <g id="line2d_178">
      <g>
       <use style="stroke:#000000;stroke-width:0.5;" x="376.142187" xlink:href="#m874647d67e" y="155.877786"/>
      </g>
     </g>
     <g id="line2d_179">
      <g>
       <use style="stroke:#000000;stroke-width:0.5;" x="655.142187" xlink:href="#m06fe51321a" y="155.877786"/>
      </g>
     </g>
    </g>
    <g id="ytick_51">
     <g id="line2d_180">
      <g>
       <use style="stroke:#000000;stroke-width:0.5;" x="376.142187" xlink:href="#m874647d67e" y="145.732862"/>
      </g>
     </g>
     <g id="line2d_181">
      <g>
       <use style="stroke:#000000;stroke-width:0.5;" x="655.142187" xlink:href="#m06fe51321a" y="145.732862"/>
      </g>
     </g>
    </g>
    <g id="ytick_52">
     <g id="line2d_182">
      <g>
       <use style="stroke:#000000;stroke-width:0.5;" x="376.142187" xlink:href="#m874647d67e" y="135.587939"/>
      </g>
     </g>
     <g id="line2d_183">
      <g>
       <use style="stroke:#000000;stroke-width:0.5;" x="655.142187" xlink:href="#m06fe51321a" y="135.587939"/>
      </g>
     </g>
    </g>
    <g id="ytick_53">
     <g id="line2d_184">
      <g>
       <use style="stroke:#000000;stroke-width:0.5;" x="376.142187" xlink:href="#m874647d67e" y="125.443016"/>
      </g>
     </g>
     <g id="line2d_185">
      <g>
       <use style="stroke:#000000;stroke-width:0.5;" x="655.142187" xlink:href="#m06fe51321a" y="125.443016"/>
      </g>
     </g>
    </g>
    <g id="ytick_54">
     <g id="line2d_186">
      <g>
       <use style="stroke:#000000;stroke-width:0.5;" x="376.142187" xlink:href="#m874647d67e" y="105.15317"/>
      </g>
     </g>
     <g id="line2d_187">
      <g>
       <use style="stroke:#000000;stroke-width:0.5;" x="655.142187" xlink:href="#m06fe51321a" y="105.15317"/>
      </g>
     </g>
    </g>
    <g id="ytick_55">
     <g id="line2d_188">
      <g>
       <use style="stroke:#000000;stroke-width:0.5;" x="376.142187" xlink:href="#m874647d67e" y="95.008247"/>
      </g>
     </g>
     <g id="line2d_189">
      <g>
       <use style="stroke:#000000;stroke-width:0.5;" x="655.142187" xlink:href="#m06fe51321a" y="95.008247"/>
      </g>
     </g>
    </g>
    <g id="ytick_56">
     <g id="line2d_190">
      <g>
       <use style="stroke:#000000;stroke-width:0.5;" x="376.142187" xlink:href="#m874647d67e" y="84.863324"/>
      </g>
     </g>
     <g id="line2d_191">
      <g>
       <use style="stroke:#000000;stroke-width:0.5;" x="655.142187" xlink:href="#m06fe51321a" y="84.863324"/>
      </g>
     </g>
    </g>
    <g id="ytick_57">
     <g id="line2d_192">
      <g>
       <use style="stroke:#000000;stroke-width:0.5;" x="376.142187" xlink:href="#m874647d67e" y="74.7184"/>
      </g>
     </g>
     <g id="line2d_193">
      <g>
       <use style="stroke:#000000;stroke-width:0.5;" x="655.142187" xlink:href="#m06fe51321a" y="74.7184"/>
      </g>
     </g>
    </g>
    <g id="ytick_58">
     <g id="line2d_194">
      <g>
       <use style="stroke:#000000;stroke-width:0.5;" x="376.142187" xlink:href="#m874647d67e" y="54.428554"/>
      </g>
     </g>
     <g id="line2d_195">
      <g>
       <use style="stroke:#000000;stroke-width:0.5;" x="655.142187" xlink:href="#m06fe51321a" y="54.428554"/>
      </g>
     </g>
    </g>
    <g id="ytick_59">
     <g id="line2d_196">
      <g>
       <use style="stroke:#000000;stroke-width:0.5;" x="376.142187" xlink:href="#m874647d67e" y="44.283631"/>
      </g>
     </g>
     <g id="line2d_197">
      <g>
       <use style="stroke:#000000;stroke-width:0.5;" x="655.142187" xlink:href="#m06fe51321a" y="44.283631"/>
      </g>
     </g>
    </g>
    <g id="ytick_60">
     <g id="line2d_198">
      <g>
       <use style="stroke:#000000;stroke-width:0.5;" x="376.142187" xlink:href="#m874647d67e" y="34.138708"/>
      </g>
     </g>
     <g id="line2d_199">
      <g>
       <use style="stroke:#000000;stroke-width:0.5;" x="655.142187" xlink:href="#m06fe51321a" y="34.138708"/>
      </g>
     </g>
    </g>
    <g id="ytick_61">
     <g id="line2d_200">
      <g>
       <use style="stroke:#000000;stroke-width:0.5;" x="376.142187" xlink:href="#m874647d67e" y="23.993785"/>
      </g>
     </g>
     <g id="line2d_201">
      <g>
       <use style="stroke:#000000;stroke-width:0.5;" x="655.142187" xlink:href="#m06fe51321a" y="23.993785"/>
      </g>
     </g>
    </g>
    <g id="ytick_62">
     <g id="line2d_202">
      <g>
       <use style="stroke:#000000;stroke-width:0.5;" x="376.142187" xlink:href="#m874647d67e" y="3.703939"/>
      </g>
     </g>
     <g id="line2d_203">
      <g>
       <use style="stroke:#000000;stroke-width:0.5;" x="655.142187" xlink:href="#m06fe51321a" y="3.703939"/>
      </g>
     </g>
    </g>
    <g id="text_27">
     <!-- silhouette_score -->
     <g transform="translate(341.12125 187.687969)rotate(-90)scale(0.14 -0.14)">
      <use xlink:href="#TimesNewRomanPSMT-115"/>
      <use x="38.916016" xlink:href="#TimesNewRomanPSMT-105"/>
      <use x="66.699219" xlink:href="#TimesNewRomanPSMT-108"/>
      <use x="94.482422" xlink:href="#TimesNewRomanPSMT-104"/>
      <use x="144.482422" xlink:href="#TimesNewRomanPSMT-111"/>
      <use x="194.482422" xlink:href="#TimesNewRomanPSMT-117"/>
      <use x="244.482422" xlink:href="#TimesNewRomanPSMT-101"/>
      <use x="288.867188" xlink:href="#TimesNewRomanPSMT-116"/>
      <use x="316.650391" xlink:href="#TimesNewRomanPSMT-116"/>
      <use x="344.433594" xlink:href="#TimesNewRomanPSMT-101"/>
      <use x="388.818359" xlink:href="#TimesNewRomanPSMT-95"/>
      <use x="438.818359" xlink:href="#TimesNewRomanPSMT-115"/>
      <use x="477.734375" xlink:href="#TimesNewRomanPSMT-99"/>
      <use x="522.119141" xlink:href="#TimesNewRomanPSMT-111"/>
      <use x="572.119141" xlink:href="#TimesNewRomanPSMT-114"/>
      <use x="605.419922" xlink:href="#TimesNewRomanPSMT-101"/>
     </g>
    </g>
   </g>
   <g id="line2d_204">
    <path clip-path="url(#p26def485c4)" d="M 388.824006 16.2 
L 431.096733 67.068951 
L 473.36946 122.636497 
L 515.642187 259.112275 
L 557.914915 240.985616 
L 600.187642 181.980647 
L 642.460369 236.357773 
" style="fill:none;stroke:#d62728;stroke-dasharray:4.44,1.92;stroke-dashoffset:0;stroke-width:1.2;"/>
    <defs>
     <path d="M 0 -4 
L -4 4 
L 4 4 
z
" id="mb7556f79fa" style="stroke:#d62728;stroke-linejoin:miter;"/>
    </defs>
    <g clip-path="url(#p26def485c4)">
     <use style="fill:#d62728;stroke:#d62728;stroke-linejoin:miter;" x="388.824006" xlink:href="#mb7556f79fa" y="16.2"/>
     <use style="fill:#d62728;stroke:#d62728;stroke-linejoin:miter;" x="431.096733" xlink:href="#mb7556f79fa" y="67.068951"/>
     <use style="fill:#d62728;stroke:#d62728;stroke-linejoin:miter;" x="473.36946" xlink:href="#mb7556f79fa" y="122.636497"/>
     <use style="fill:#d62728;stroke:#d62728;stroke-linejoin:miter;" x="515.642187" xlink:href="#mb7556f79fa" y="259.112275"/>
     <use style="fill:#d62728;stroke:#d62728;stroke-linejoin:miter;" x="557.914915" xlink:href="#mb7556f79fa" y="240.985616"/>
     <use style="fill:#d62728;stroke:#d62728;stroke-linejoin:miter;" x="600.187642" xlink:href="#mb7556f79fa" y="181.980647"/>
     <use style="fill:#d62728;stroke:#d62728;stroke-linejoin:miter;" x="642.460369" xlink:href="#mb7556f79fa" y="236.357773"/>
    </g>
   </g>
   <g id="line2d_205">
    <path clip-path="url(#p26def485c4)" d="M 388.824006 33.453055 
L 431.096733 183.136644 
L 473.36946 163.086998 
L 515.642187 147.458636 
L 557.914915 136.995936 
L 600.187642 211.114377 
L 642.460369 268.2 
" style="fill:none;stroke:#000000;stroke-dasharray:4.44,1.92;stroke-dashoffset:0;stroke-width:1.2;"/>
    <defs>
     <path d="M 0 -4 
L -4 4 
L 4 4 
z
" id="me8483d383a" style="stroke:#000000;stroke-linejoin:miter;"/>
    </defs>
    <g clip-path="url(#p26def485c4)">
     <use style="stroke:#000000;stroke-linejoin:miter;" x="388.824006" xlink:href="#me8483d383a" y="33.453055"/>
     <use style="stroke:#000000;stroke-linejoin:miter;" x="431.096733" xlink:href="#me8483d383a" y="183.136644"/>
     <use style="stroke:#000000;stroke-linejoin:miter;" x="473.36946" xlink:href="#me8483d383a" y="163.086998"/>
     <use style="stroke:#000000;stroke-linejoin:miter;" x="515.642187" xlink:href="#me8483d383a" y="147.458636"/>
     <use style="stroke:#000000;stroke-linejoin:miter;" x="557.914915" xlink:href="#me8483d383a" y="136.995936"/>
     <use style="stroke:#000000;stroke-linejoin:miter;" x="600.187642" xlink:href="#me8483d383a" y="211.114377"/>
     <use style="stroke:#000000;stroke-linejoin:miter;" x="642.460369" xlink:href="#me8483d383a" y="268.2"/>
    </g>
   </g>
   <g id="patch_9">
    <path d="M 376.142187 280.8 
L 376.142187 3.6 
" style="fill:none;stroke:#000000;stroke-linecap:square;stroke-linejoin:miter;"/>
   </g>
   <g id="patch_10">
    <path d="M 655.142187 280.8 
L 655.142187 3.6 
" style="fill:none;stroke:#000000;stroke-linecap:square;stroke-linejoin:miter;"/>
   </g>
   <g id="patch_11">
    <path d="M 376.142187 280.8 
L 655.142187 280.8 
" style="fill:none;stroke:#000000;stroke-linecap:square;stroke-linejoin:miter;"/>
   </g>
   <g id="patch_12">
    <path d="M 376.142187 3.6 
L 655.142187 3.6 
" style="fill:none;stroke:#000000;stroke-linecap:square;stroke-linejoin:miter;"/>
   </g>
   <g id="legend_2">
    <g id="patch_13">
     <path d="M 507.683594 50.785938 
L 646.042187 50.785938 
Q 648.642187 50.785938 648.642187 48.185938 
L 648.642187 12.7 
Q 648.642187 10.1 646.042187 10.1 
L 507.683594 10.1 
Q 505.083594 10.1 505.083594 12.7 
L 505.083594 48.185938 
Q 505.083594 50.785938 507.683594 50.785938 
z
" style="fill:#ffffff;stroke:#cccccc;stroke-linejoin:miter;"/>
    </g>
    <g id="line2d_206">
     <path d="M 510.283594 19.85 
L 536.283594 19.85 
" style="fill:none;stroke:#d62728;stroke-dasharray:4.44,1.92;stroke-dashoffset:0;stroke-width:1.2;"/>
    </g>
    <g id="line2d_207">
     <g>
      <use style="fill:#d62728;stroke:#d62728;stroke-linejoin:miter;" x="523.283594" xlink:href="#mb7556f79fa" y="19.85"/>
     </g>
    </g>
    <g id="text_28">
     <!-- K-Means++ -->
     <g transform="translate(546.683594 24.4)scale(0.13 -0.13)">
      <use xlink:href="#TimesNewRomanPSMT-75"/>
      <use x="72.216797" xlink:href="#TimesNewRomanPSMT-45"/>
      <use x="105.517578" xlink:href="#TimesNewRomanPSMT-77"/>
      <use x="194.433594" xlink:href="#TimesNewRomanPSMT-101"/>
      <use x="238.818359" xlink:href="#TimesNewRomanPSMT-97"/>
      <use x="283.203125" xlink:href="#TimesNewRomanPSMT-110"/>
      <use x="333.203125" xlink:href="#TimesNewRomanPSMT-115"/>
      <use x="372.119141" xlink:href="#TimesNewRomanPSMT-43"/>
      <use x="428.515625" xlink:href="#TimesNewRomanPSMT-43"/>
     </g>
    </g>
    <g id="line2d_208">
     <path d="M 510.283594 38.230781 
L 536.283594 38.230781 
" style="fill:none;stroke:#000000;stroke-dasharray:4.44,1.92;stroke-dashoffset:0;stroke-width:1.2;"/>
    </g>
    <g id="line2d_209">
     <g>
      <use style="stroke:#000000;stroke-linejoin:miter;" x="523.283594" xlink:href="#me8483d383a" y="38.230781"/>
     </g>
    </g>
    <g id="text_29">
     <!-- SpectralClustering -->
     <g transform="translate(546.683594 42.780781)scale(0.13 -0.13)">
      <use xlink:href="#TimesNewRomanPSMT-83"/>
      <use x="55.615234" xlink:href="#TimesNewRomanPSMT-112"/>
      <use x="105.615234" xlink:href="#TimesNewRomanPSMT-101"/>
      <use x="150" xlink:href="#TimesNewRomanPSMT-99"/>
      <use x="194.384766" xlink:href="#TimesNewRomanPSMT-116"/>
      <use x="222.167969" xlink:href="#TimesNewRomanPSMT-114"/>
      <use x="255.46875" xlink:href="#TimesNewRomanPSMT-97"/>
      <use x="299.853516" xlink:href="#TimesNewRomanPSMT-108"/>
      <use x="327.636719" xlink:href="#TimesNewRomanPSMT-67"/>
      <use x="394.335938" xlink:href="#TimesNewRomanPSMT-108"/>
      <use x="422.119141" xlink:href="#TimesNewRomanPSMT-117"/>
      <use x="472.119141" xlink:href="#TimesNewRomanPSMT-115"/>
      <use x="511.035156" xlink:href="#TimesNewRomanPSMT-116"/>
      <use x="538.818359" xlink:href="#TimesNewRomanPSMT-101"/>
      <use x="583.203125" xlink:href="#TimesNewRomanPSMT-114"/>
      <use x="616.503906" xlink:href="#TimesNewRomanPSMT-105"/>
      <use x="644.287109" xlink:href="#TimesNewRomanPSMT-110"/>
      <use x="694.287109" xlink:href="#TimesNewRomanPSMT-103"/>
     </g>
    </g>
   </g>
  </g>
 </g>
 <defs>
  <clipPath id="pe8d5f0f371">
   <rect height="277.2" width="279" x="41.342188" y="3.6"/>
  </clipPath>
  <clipPath id="p26def485c4">
   <rect height="277.2" width="279" x="376.142187" y="3.6"/>
  </clipPath>
 </defs>
</svg>
